<?xml version="1.0" encoding="UTF-8"?>
<svg width="253px" height="51px" viewBox="0 0 253 51" version="1.1" xmlns="http://www.w3.org/2000/svg" xmlns:xlink="http://www.w3.org/1999/xlink">
    <!-- Generator: Sketch 50.2 (55047) - http://www.bohemiancoding.com/sketch -->
    <title>symphony-logo-nav</title>
    <desc>Created with Sketch.</desc>
    <defs></defs>
    <g id="symphony-logo-nav" stroke="none" stroke-width="1" fill="none" fill-rule="evenodd">
        <g id="symphony-logo-2018" transform="translate(23.000000, 14.000000)" fill="#00588A">
            <g id="Shape">
                <path d="M21.9345455,15.6098361 C21.9345455,20.8885246 17.5098182,22.9622951 12.2530909,22.9622951 C6.58036364,22.9622951 2.83636364,20.6622951 0.340363636,18.5508197 L2.79854545,15.647541 C4.576,17.1557377 7.67709091,19.4180328 12.2909091,19.4180328 C15.2785455,19.4180328 17.6610909,18.3245902 17.6610909,16.1 C17.6610909,13.6868852 15.3163636,13.1590164 11.7614545,12.895082 C7.03418182,12.5180328 1.51272727,12.1032787 1.51272727,6.74918033 C1.51272727,1.54590164 6.31563636,7.10542736e-15 10.3621818,7.10542736e-15 C14.9003636,7.10542736e-15 18.6821818,1.73442623 20.4596364,3.01639344 L17.9636364,5.95737705 C16.7156364,4.93934426 13.9927273,3.5442623 10.2109091,3.5442623 C7.82836364,3.5442623 5.71054545,4.37377049 5.71054545,6.40983607 C5.71054545,8.55901639 8.736,8.67213115 11.7992727,8.89836066 C15.7701818,9.2 21.9345455,9.6147541 21.9345455,15.6098361 Z M63.0429091,12.9327869 L62.9672727,12.9327869 L55.6305455,0.603278689 L51.4327273,0.603278689 L51.4327273,22.2459016 L55.5170909,22.2459016 L55.5170909,8.63442623 L55.6683636,8.63442623 L62.3243636,19.757377 L63.2698182,19.757377 L69.9258182,8.63442623 L70.0770909,8.63442623 L70.0770909,22.2836066 L74.3505455,22.2836066 L74.3505455,0.640983607 L70.304,0.640983607 L63.0429091,12.9327869 Z M121.358545,9.2 L110.353455,9.2 L110.353455,0.640983607 L106.08,0.640983607 L106.08,22.2836066 L110.353455,22.2836066 L110.353455,12.857377 L121.358545,12.857377 L121.358545,22.2836066 L125.632,22.2836066 L125.632,0.640983607 L121.358545,0.640983607 L121.358545,9.2 Z M143.179636,0 C136.561455,0 131.380364,5.12786885 131.380364,11.4245902 C131.380364,17.8344262 136.561455,22.9245902 143.179636,22.9245902 C149.797818,22.9245902 155.092364,17.8344262 155.092364,11.4245902 C155.092364,5.09016393 149.797818,0 143.179636,0 Z M143.179636,19.2295082 C139.057455,19.2295082 135.842909,15.6852459 135.842909,11.4245902 C135.842909,7.20163934 139.057455,3.73278689 143.179636,3.73278689 C147.339636,3.73278689 150.629818,7.20163934 150.629818,11.4245902 C150.629818,15.6852459 147.377455,19.2295082 143.179636,19.2295082 Z M176.421818,14.8557377 L164.584727,0.640983607 L160.878545,0.640983607 L160.878545,22.2836066 L165.152,22.2836066 L165.152,8.06885246 L165.189818,8.06885246 L176.989091,22.2836066 L180.695273,22.2836066 L180.695273,0.640983607 L176.421818,0.640983607 L176.421818,14.8557377 Z M202.818909,0.640983607 L196.730182,10.9344262 L196.616727,10.9344262 L190.490182,0.640983607 L185.309091,0.640983607 L194.385455,15.0819672 L194.385455,22.2836066 L198.658909,22.2836066 L198.658909,15.0819672 L207.735273,0.640983607 L202.818909,0.640983607 Z M36.2298182,10.9344262 L36.1163636,10.9344262 L29.9898182,0.640983607 L24.8087273,0.640983607 L33.8850909,15.0819672 L33.8850909,22.2836066 L38.1207273,22.2836066 L38.1207273,15.0819672 L47.1970909,0.640983607 L42.3563636,0.640983607 L36.2298182,10.9344262 Z M92.2007273,0.640983607 L80.9687273,0.640983607 L80.9687273,22.2836066 L85.2043636,22.2836066 L85.2043636,15.2327869 L92.2007273,15.2327869 C95.3774545,15.2327869 97.4196364,14.3655738 98.8189091,13.0081967 C100.180364,11.7262295 101.012364,9.91639344 101.012364,7.91803279 C101.012364,6.14590164 100.369455,4.52459016 99.1214545,3.16721311 C97.6843636,1.54590164 95.5287273,0.640983607 92.2007273,0.640983607 Z M95.7178182,10.4065574 C94.6967273,11.3868852 93.3730909,11.5 92.352,11.5 L85.2421818,11.5 L85.2421818,4.29836066 L92.352,4.29836066 C93.4865455,4.29836066 94.8101818,4.44918033 95.8312727,5.50491803 C96.4363636,6.14590164 96.8145455,6.97540984 96.8145455,7.91803279 C96.7767273,8.82295082 96.3985455,9.76557377 95.7178182,10.4065574 Z" fill-rule="nonzero"></path>
            </g>
        </g>
    </g>
</svg>