<?xml version="1.0" encoding="UTF-8" standalone="no"?>
<svg width="253px" height="51px" viewBox="0 0 253 51" version="1.1" xmlns="http://www.w3.org/2000/svg" xmlns:xlink="http://www.w3.org/1999/xlink">
    <!-- Generator: Sketch 42 (36781) - http://www.bohemiancoding.com/sketch -->
    <title>symphony-logo-nav-light</title>
    <desc>Created with Sketch.</desc>
    <defs>
        <polygon id="path-1" points="0.0803174603 14.5524474 0.0803174603 0.390552632 49.2627143 0.390552632 49.2627143 14.5524474 0.0803174603 14.5524474"></polygon>
    </defs>
    <g id="Page-1" stroke="none" stroke-width="1" fill="none" fill-rule="evenodd">
        <g id="Light">
            <g id="symphony-logo-nav-light">
                <path d="M75.7233016,21.6011842 C74.5506667,20.6281579 72.0005873,19.3115526 68.4331534,19.3115526 C66.1963122,19.3115526 64.208455,20.0792368 64.208455,22.0400526 C64.208455,24.0639474 67.0717725,24.1833947 69.9511534,24.3941053 C73.6417407,24.6585 79.431291,25.0517368 79.431291,30.7301842 C79.431291,35.7335526 75.2708466,37.6782632 70.3273069,37.6782632 C64.9915503,37.6782632 61.4549048,35.5147895 59.1243598,33.507 L61.4549048,30.7449474 C63.1455873,32.1890526 66.0396931,34.3216579 70.3888836,34.3216579 C73.2040106,34.3216579 75.4421905,33.303 75.4421905,31.1851579 C75.4421905,28.9116316 73.2227513,28.4016316 69.9056402,28.1587105 C65.4158942,27.8272105 60.2193545,27.4205526 60.2193545,22.338 C60.2193545,17.4285789 64.7559524,15.9388421 68.5589841,15.9388421 C72.8452593,15.9388421 76.3805661,17.5708421 78.0712487,18.8096053 L75.7233016,21.6011842" id="Fill-1" fill="#3B3C3A"></path>
                <polyline id="Fill-2" fill="#3B3C3A" points="123.757159 37.0515 123.757159 24.1431316 123.60054 24.1431316 117.342471 34.6679211 116.436222 34.6679211 110.178153 24.1431316 110.021534 24.1431316 110.021534 37.0515 106.172989 37.0515 106.172989 16.5656053 110.115238 16.5656053 117.013169 28.2217895 117.077423 28.2217895 123.96063 16.5656053 127.762323 16.5656053 127.762323 37.0515 123.757159 37.0515"></polyline>
                <polyline id="Fill-3" fill="#3B3C3A" points="158.290989 37.0515 158.290989 16.5656053 162.296153 16.5656053 162.296153 24.6678947 172.669153 24.6678947 172.669153 16.5656053 176.672979 16.5656053 176.672979 37.0515 172.669153 37.0515 172.669153 28.1345526 162.296153 28.1345526 162.296153 37.0515 158.290989 37.0515"></polyline>
                <path d="M192.826159,15.9562895 C199.057455,15.9562895 204.037138,20.7959211 204.037138,26.7615789 C204.037138,32.8386316 199.057455,37.6621579 192.826159,37.6621579 C186.594862,37.6621579 181.72227,32.8386316 181.72227,26.7615789 C181.72227,20.7959211 186.594862,15.9562895 192.826159,15.9562895 Z M192.827497,34.1646316 C196.757698,34.1646316 199.844566,30.8160789 199.844566,26.7615789 C199.844566,22.7553947 196.757698,19.4685789 192.827497,19.4685789 C188.94281,19.4685789 185.91618,22.7553947 185.91618,26.7615789 C185.91618,30.8160789 188.94281,34.1646316 192.827497,34.1646316 L192.827497,34.1646316 Z" id="Fill-4" fill="#3B3C3A"></path>
                <polyline id="Fill-5" fill="#3B3C3A" points="227.671889 16.5656053 227.671889 37.0515 224.182095 37.0515 213.091593 23.6089737 213.060804 23.6089737 213.060804 37.0515 209.054302 37.0515 209.054302 16.5656053 212.526693 16.5656053 223.635937 30.0242368 223.666725 30.0242368 223.666725 16.5656053 227.671889 16.5656053"></polyline>
                <polyline id="Fill-6" fill="#3B3C3A" points="252.563608 16.5656053 247.968111 16.5656053 242.220058 26.3052632 242.116984 26.3052632 236.356884 16.5656053 231.48563 16.5656053 240.027392 30.2295789 240.027392 37.0515 244.032556 37.0515 244.032556 30.2282368 252.563608 16.5656053"></polyline>
                <polyline id="Fill-7" fill="#3B3C3A" points="102.325783 16.5656053 97.7302857 16.5656053 91.9822328 26.3052632 91.8778201 26.3052632 86.1203968 16.5656053 81.2478042 16.5656053 89.7909048 30.2295789 89.7909048 37.0515 93.7947302 37.0515 93.7947302 30.2282368 102.325783 16.5656053"></polyline>
                <path d="M138.298635,20.0336053 L144.97837,20.0336053 C146.037222,20.0336053 147.296868,20.1597632 148.243275,21.1676842 C148.828254,21.7877368 149.176296,22.5567632 149.176296,23.4519474 C149.176296,24.3296842 148.796127,25.194 148.153587,25.8113684 C147.175053,26.7495 145.946196,26.8541842 144.97837,26.8541842 L138.298635,26.8528421 L138.298635,20.0336053 Z M138.298635,30.3825789 L144.876635,30.3839211 C147.852397,30.3839211 149.771984,29.5773158 151.117302,28.2808421 C152.391672,27.0514737 153.178783,25.3657895 153.178783,23.4492632 C153.178783,21.7877368 152.579079,20.2376053 151.403767,18.9572368 C150.011598,17.4379737 147.988937,16.5656053 144.876635,16.5656053 L134.308196,16.5656053 L134.308196,37.0515 L138.298635,37.0515 L138.298635,30.3825789 L138.298635,30.3825789 Z" id="Fill-8" fill="#3B3C3A"></path>
                <path d="M6.00774603,29.3156053 C6.00774603,32.4668684 6.76139153,35.4423158 8.10001587,38.0674737 L25.2330688,29.3156053 L6.00774603,29.3156053" id="Fill-9" fill="#E25C85"></path>
                <path d="M18.1691481,39.0619737 C20.1529894,40.5087632 22.5933016,41.3623421 25.2330688,41.3623421 L25.2330688,29.3156053 L18.1691481,39.0619737" id="Fill-10" fill="#4CAAD4"></path>
                <path d="M36.2700265,2.59965789 C32.8712593,1.18507895 29.1431905,0.403973684 25.2330688,0.403973684 C23.6976667,0.403973684 22.1917143,0.524763158 20.7219048,0.755605263 L25.2330688,29.3156053 L36.2700265,2.59965789" id="Fill-11" fill="#94C564"></path>
                <g id="Group-15" transform="translate(0.000000, 14.763158)">
                    <mask id="mask-2" fill="white">
                        <use xlink:href="#path-1"></use>
                    </mask>
                    <g id="Clip-13"></g>
                    <path d="M25.2330688,14.5524474 L49.2627143,14.5524474 C49.2627143,9.25918421 47.5599841,4.36586842 44.6739101,0.390552632 L25.2330688,14.5524474" id="Fill-12" fill="#F9C638" mask="url(#mask-2)"></path>
                    <path d="M3.71602116,1.33405263 C1.36004233,5.18052632 0,9.70744737 0,14.5524474 L25.2330688,14.5524474 L3.71602116,1.33405263" id="Fill-14" fill="#595A57" mask="url(#mask-2)"></path>
                </g>
                <path d="M25.2330688,12.4507105 C21.5384656,12.4507105 18.1209577,13.6465263 15.3446508,15.6717632 L25.2330688,29.3156053 L25.2330688,12.4507105" id="Fill-16" fill="#959692"></path>
                <path d="M25.2330688,51 C29.9838466,51 34.3772116,49.4619474 37.9446455,46.8582632 L25.2330688,29.3156053 L25.2330688,51" id="Fill-17" fill="#6F6F6C"></path>
                <path d="M41.8494127,26.6770263 L25.2330688,29.3156053 L40.775836,35.7711316 C41.5990899,33.7821316 42.0542222,31.6025526 42.0542222,29.3156053 C42.0542222,28.4177368 41.9832751,27.5373158 41.8494127,26.6770263" id="Fill-18" fill="#3B3C3A"></path>
            </g>
        </g>
    </g>
</svg>