<?xml version="1.0" encoding="UTF-8" standalone="no"?>
<svg width="399px" height="36px" viewBox="0 0 399 36" version="1.1" xmlns="http://www.w3.org/2000/svg" xmlns:xlink="http://www.w3.org/1999/xlink">
    <!-- Generator: Sketch 40.1 (33804) - http://www.bohemiancoding.com/sketch -->
    <title>symphony-innovate-logo</title>
    <desc>Created with Sketch.</desc>
    <defs></defs>
    <g id="Page-1" stroke="none" stroke-width="1" fill="none" fill-rule="evenodd">
        <g id="symphony-innovate-logo">
            <path d="M118.94,13.38 C118.750614,6.75350484 113.324201,1.47996428 106.695,1.47996428 C100.065799,1.47996428 94.6393864,6.75350484 94.45,13.38 C94.5742593,18.368339 97.0186798,23.0131078 101.06,25.94 L101.06,32.83 C101.05889,33.0871462 101.151295,33.335928 101.32,33.53 C101.55,33.79 102.88,35.09 106.62,35.09 C110.36,35.09 111.92,33.49 112.07,33.31 C112.230613,33.1197313 112.31912,32.8789941 112.32,32.63 L112.32,25.95 C116.367856,23.0230996 118.816487,18.3736585 118.94,13.38 L118.94,13.38 Z M110.21,32.12 C109.12205,32.7479183 107.874004,33.0434166 106.62,32.97 C105.432168,33.0371778 104.246347,32.8068879 103.17,32.3 L103.17,27.06 C105.414493,27.9705916 107.925507,27.9705916 110.17,27.06 L110.21,32.12 Z M106.69,25.64 C101.08,25.64 96.56,18.93 96.56,13.38 C96.56,7.78259406 101.097594,3.245 106.695,3.245 C112.292406,3.245 116.83,7.78259406 116.83,13.38 C116.83,18.94 112.31,25.64 106.7,25.64 L106.69,25.64 Z" id="Shape" fill="#F4BA18"></path>
            <rect id="Rectangle-path" fill="#F4BA18" x="89.79" y="13.81" width="2.11" height="2.11" rx="1.055"></rect>
            <rect id="Rectangle-path" fill="#F4BA18" x="121.48" y="13.81" width="2.11" height="2.11" rx="1.055"></rect>
            <rect id="Rectangle-path" fill="#F4BA18" transform="translate(95.487871, 26.073973) rotate(-45.000000) translate(-95.487871, -26.073973) " x="94.4328709" y="25.0189727" width="2.11" height="2.11" rx="1.055"></rect>
            <rect id="Rectangle-path" fill="#F4BA18" transform="translate(117.897871, 3.661447) rotate(-45.000000) translate(-117.897871, -3.661447) " x="116.842871" y="2.60644674" width="2.11" height="2.11" rx="1.055"></rect>
            <rect id="Rectangle-path" fill="#F4BA18" transform="translate(117.551372, 26.439146) rotate(-44.990000) translate(-117.551372, -26.439146) " x="116.496372" y="25.3841456" width="2.11" height="2.11" rx="1.055"></rect>
            <rect id="Rectangle-path" fill="#F4BA18" transform="translate(95.138846, 4.033614) rotate(-44.990000) translate(-95.138846, -4.033614) " x="94.0838465" y="2.97861419" width="2.11" height="2.11" rx="1.055"></rect>
            <polygon id="Shape" fill="#43B2DC" points="126.7 0.83 131.25 0.83 141.65 30.08 141.75 30.08 152.24 0.83 156.79 0.83 144.12 34.68 139.28 34.68"></polygon>
            <path d="M174.04,0.83 L178.97,0.83 L191.74,34.68 L187.29,34.68 L184.29,26.36 L168.72,26.36 L165.72,34.68 L161.22,34.68 L174.04,0.83 Z M169.93,23.03 L183.03,23.03 L176.5,5.03 L176.46,5.03 L169.93,23.03 Z" id="Shape" fill="#43B2DC"></path>
            <polygon id="Shape" fill="#43B2DC" points="208.13 4.51 195.9 4.51 195.9 0.84 224.53 0.84 224.53 4.51 212.24 4.51 212.24 34.68 208.13 34.68"></polygon>
            <polygon id="Shape" fill="#43B2DC" points="234.78 0.83 257.99 0.83 257.99 4.5 238.89 4.5 238.89 15.72 256.1 15.72 256.1 19.15 238.89 19.15 238.89 31 258.28 31 258.28 34.67 234.78 34.67"></polygon>
            <path d="M269.69,32.7 C269.538521,30.3500584 269.996654,28.0008334 271.02,25.88 C271.912574,24.1780004 273.148634,22.6797462 274.65,21.48 C276.119862,20.3179093 277.728953,19.3437207 279.44,18.58 C281.166667,17.8066667 282.77,17.0333333 284.25,16.26 C285.61315,15.5719762 286.866776,14.6856762 287.97,13.63 C288.981819,12.6140107 289.525255,11.2228148 289.47,9.79 C289.476767,8.98488205 289.313188,8.18743489 288.99,7.45 C288.640579,6.69424709 288.116093,6.03264031 287.46,5.52 C286.726584,4.9315707 285.888535,4.48709944 284.99,4.21 C283.869156,3.86871909 282.701419,3.7067208 281.53,3.73 C279.733777,3.72159407 277.957964,4.11090697 276.33,4.87 C274.776336,5.57855385 273.347808,6.53428312 272.1,7.7 L269.54,5.14 C271.117978,3.6719785 272.942619,2.49391696 274.93,1.66 C277.041738,0.732683453 279.323631,0.255870071 281.63,0.26 C283.353125,0.227856742 285.069679,0.481284983 286.71,1.01 C288.047896,1.44069872 289.292864,2.11915555 290.38,3.01 C291.34956,3.82476864 292.119299,4.85108753 292.63,6.01 C293.131888,7.16102433 293.387363,8.40433513 293.38,9.66 C293.456463,11.4433745 292.939493,13.2017766 291.91,14.66 C290.900635,15.9723336 289.664466,17.0933526 288.26,17.97 C286.752776,18.9175481 285.166947,19.7338819 283.52,20.41 C281.872101,21.0901021 280.280486,21.8992844 278.76,22.83 C277.341961,23.6885652 276.102691,24.8123956 275.11,26.14 C274.093143,27.6200672 273.600352,29.3976343 273.71,31.19 L293.34,31.19 L293.34,34.62 L269.74,34.62 L269.69,32.7 Z" id="Shape" fill="#F4BA18"></path>
            <path d="M303.46,17.08 C303.46,5.86 307.62,0.25 315.94,0.25 C324.26,0.25 328.433333,5.86 328.46,17.08 L328.46,17.9 C328.46,23.6066667 327.46,27.8366667 325.46,30.59 C323.46,33.3433333 320.333333,34.72 316.08,34.72 C311.86,34.72 308.716667,33.3433333 306.65,30.59 C304.583333,27.8366667 303.52,23.6066667 303.46,17.9 L303.46,17.08 Z M324.4,17.08 C324.4,12.5 323.733333,9.13 322.4,6.97 C321.066667,4.81 318.913333,3.73 315.94,3.73 C312.973333,3.73 310.836667,4.81 309.53,6.97 C308.223333,9.13 307.556667,12.5 307.53,17.08 L307.53,17.9 C307.53,22.48 308.196667,25.85 309.53,28.01 C310.863333,30.17 313.006667,31.25 315.96,31.25 C318.926667,31.25 321.07,30.17 322.39,28.01 C323.71,25.85 324.376667,22.48 324.39,17.9 L324.4,17.08 Z" id="Shape" fill="#F4BA18"></path>
            <polygon id="Shape" fill="#F4BA18" points="340.67 31.39 350.24 31.39 350.24 4.99 341.58 8.91 339.98 5.91 351.05 0.83 354.29 0.83 354.29 31.39 363.14 31.39 363.14 34.68 340.67 34.68"></polygon>
            <path d="M372.98,18.82 C372.909603,15.9141875 373.342661,13.0181138 374.26,10.26 C374.983879,8.13120857 376.137775,6.17400997 377.65,4.51 C378.987222,3.07036317 380.640714,1.96118852 382.48,1.27 C384.265023,0.604893478 386.155096,0.266170854 388.06,0.27 C389.579944,0.259093451 391.096246,0.420116671 392.58,0.75 C393.956453,1.06038527 395.296969,1.51280961 396.58,2.1 L394.98,5.1 C393.966789,4.66952678 392.915547,4.33473625 391.84,4.1 C390.586753,3.81639002 389.304888,3.67880766 388.02,3.69 C386.6271,3.6857737 385.247177,3.9576798 383.96,4.49 C382.644326,5.04288268 381.471471,5.88747529 380.53,6.96 C379.445861,8.21845852 378.623196,9.68021999 378.11,11.26 C377.452367,13.2835845 377.095229,15.3927176 377.05,17.52 C378.359954,16.2607165 379.883756,15.2448486 381.55,14.52 C383.298878,13.7374276 385.194022,13.3352207 387.11,13.34 C388.649011,13.3227389 390.179039,13.5766153 391.63,14.09 C392.946718,14.5588717 394.154471,15.2903275 395.18,16.24 C396.191289,17.1897523 396.991893,18.3412601 397.53,19.62 C398.641128,22.4135685 398.641128,25.5264315 397.53,28.32 C396.99048,29.661459 396.184191,30.8793983 395.16,31.9 C394.07227,32.9704308 392.779841,33.8105098 391.36,34.37 C389.736131,35.005854 388.00369,35.3183728 386.26,35.29 C384.160954,35.3457405 382.079227,34.8964716 380.19,33.98 C378.545629,33.1493788 377.12816,31.9309731 376.06,30.43 C374.957851,28.8421263 374.164063,27.0611922 373.72,25.18 C373.212237,23.098586 372.963686,20.9623916 372.98,18.82 L372.98,18.82 Z M377.09,20.75 C377.169147,22.2651903 377.427617,23.765658 377.86,25.22 C378.232234,26.4938025 378.831895,27.6897361 379.63,28.75 C380.382979,29.730084 381.351267,30.5238744 382.46,31.07 C384.765785,32.1175362 387.395318,32.1967824 389.76,31.29 C390.716953,30.89933 391.582004,30.3135475 392.3,29.57 C392.989055,28.8491763 393.523344,27.994994 393.87,27.06 C394.227176,26.1004267 394.406767,25.0838699 394.4,24.06 C394.412955,23.0017756 394.215815,21.9514974 393.82,20.97 C393.45201,20.0644268 392.892561,19.2491311 392.18,18.58 C391.456225,17.909553 390.611093,17.3834668 389.69,17.03 C388.677555,16.6470852 387.60236,16.4571452 386.52,16.47 C384.652804,16.4614317 382.808635,16.8822717 381.13,17.7 C379.580842,18.4207509 378.203461,19.4640146 377.09,20.76 L377.09,20.75 Z" id="Shape" fill="#F4BA18"></path>
            <polygon id="Shape" fill="#43B2DC" points="0.46 0.79 4.57 0.79 4.57 34.64 0.46 34.64"></polygon>
            <polygon id="Shape" fill="#43B2DC" points="17.46 0.79 21.62 0.79 40.43 28.26 40.43 0.79 44.43 0.79 44.43 34.64 40.22 34.64 21.38 7.22 21.38 34.64 17.38 34.64"></polygon>
            <polygon id="Shape" fill="#43B2DC" points="57.26 0.79 61.46 0.79 80.27 28.26 80.27 0.79 84.27 0.79 84.27 34.64 80.06 34.64 61.23 7.22 61.23 34.64 57.23 34.64"></polygon>
        </g>
    </g>
</svg>