<?xml version="1.0" encoding="utf-8"?>
<!-- Generator: Adobe Illustrator 19.0.0, SVG Export Plug-In . SVG Version: 6.00 Build 0)  -->
<svg version="1.1" id="图层_1" xmlns="http://www.w3.org/2000/svg" xmlns:xlink="http://www.w3.org/1999/xlink" x="0px" y="0px"
	 viewBox="0 0 20 24" style="enable-background:new 0 0 20 24;" xml:space="preserve">
<style type="text/css">
	.st0{fill-rule:evenodd;clip-rule:evenodd;fill:#3BBE7A;}
</style>
<g id="XMLID_1_">
	<path id="XMLID_14_" class="st0" d="M13.1,2.5l1.1-1.7c0,0,0-0.1-0.1-0.2c-0.1-0.1-0.2,0-0.2,0l-1.1,1.7c-0.8-0.4-1.7-0.5-2.7-0.5
		c-1,0-1.8,0.1-2.7,0.5L6.3,0.6c0,0-0.1,0-0.2,0C6,0.7,6,0.8,6,0.8l1.1,1.7C5.1,3.4,4.3,4.9,4.3,7h5.8h5.6C15.7,4.9,15,3.4,13.1,2.5
		z M7.8,5.6H6.5V4.2h1.4V5.6z M13.5,5.6h-1.4V4.2h1.4V5.6z"/>
	<path id="XMLID_16_" class="st0" d="M4.3,17.4c0,0.5,0.6,1.1,1,1.1h0.4V22c0,0.8,0.7,1.5,1.4,1.5c0.7,0,1.4-0.6,1.4-1.5v-3.5h2.8
		V22c0,0.8,0.7,1.5,1.4,1.5c0.7,0,1.4-0.6,1.4-1.5v-3.5h0.3c0.5,0,1.1-0.6,1.1-1.1V8.4H4.3V17.4z"/>
	<path id="XMLID_17_" class="st0" d="M1.4,7.7C0.7,7.7,0,8.3,0,9.1v5.4C0,15.4,0.7,16,1.4,16c0.7,0,1.4-0.6,1.4-1.4V9.1
		C2.9,8.3,2.2,7.7,1.4,7.7z"/>
	<path id="XMLID_18_" class="st0" d="M18.6,7.7c-0.7,0-1.4,0.6-1.4,1.4v5.4c0,0.8,0.7,1.4,1.4,1.4c0.7,0,1.4-0.6,1.4-1.4V9.1
		C20,8.3,19.3,7.7,18.6,7.7z"/>
</g>
</svg>
