<?xml version="1.0" encoding="utf-8"?>
<!-- Generator: Adobe Illustrator 19.0.0, SVG Export Plug-In . SVG Version: 6.00 Build 0)  -->
<svg version="1.1" id="图层_1" xmlns="http://www.w3.org/2000/svg" xmlns:xlink="http://www.w3.org/1999/xlink" x="0px" y="0px"
	 viewBox="0 0 200 80" style="enable-background:new 0 0 200 80;" xml:space="preserve">
<style type="text/css">
	.st0{fill:#3DBE7A;}
	.st1{opacity:0.8;fill:#3DBE7A;}
</style>
<path id="XMLID_50_" class="st0" d="M154,7.2c-3,0-3.6,0.6-4,3.2l-0.4,2.8h7.3l-0.2,1.5h-7.3l-0.5,3.1c-0.1,0.6-0.1,1-0.1,1.4
	c0,1.5,0.8,1.8,3.2,1.8h4.1l-0.2,1.5c-1.3,0.1-2.8,0.1-4.1,0.1c-2.5,0-4.9-0.1-4.9-2.8c0-0.3,0-0.6,0.1-0.9l1.5-9.4
	c0.6-3.6,3.2-3.7,6-3.7c1.1,0,2.7,0,4,0.1l-0.2,1.4H154V7.2z M147.5,35.6c0.7,0,1.1,0.4,1.2,1.3l3.1,15.7h-1.9l-0.9-4.8h-7l-2.5,4.8
	h-1.9l8.2-15.7C146.3,36,146.8,35.6,147.5,35.6z M142.7,46.2h6l-1.6-8.5L142.7,46.2z M141.3,22.5H139l-5.9-8.2l-1.3,8.2H130
	l2.7-16.8h1.8l-1.2,7.8l8.4-7.8h2.2l-8.8,8.1L141.3,22.5z M122.1,17.7h-7l-2.5,4.8h-1.9l8.2-15.7c0.4-0.8,1-1.3,1.6-1.3
	c0.7,0,1.1,0.4,1.2,1.3l3.1,15.7H123L122.1,17.7z M120.2,7.7l-4.4,8.5h6L120.2,7.7z M106.1,22.5h-1.8l1.4-14l0,0l-6.5,10.8
	c-0.4,0.6-0.7,0.9-1.2,0.9s-0.8-0.3-0.9-0.9l-3-10.9l-3,14h-1.7l3.4-15.7c0.2-0.9,0.6-1.3,1.4-1.3c0.5,0,1,0.4,1.2,1.2l3.1,11.1
	l6.7-11.1c0.5-0.8,1-1.2,1.6-1.2c0.7,0,1,0.3,1,1c0,0.1,0,0.2,0,0.3L106.1,22.5z M93.9,35.8l-0.2,1.4h-4.1c-3,0-3.6,0.6-4,3.2
	L85,43.2h7.3l-0.2,1.5h-7.3l-0.5,3.1c-0.1,0.6-0.1,1-0.1,1.4c0,1.5,0.8,1.8,3.2,1.8h4.1l-0.2,1.5c-1.3,0.1-2.8,0.1-4.1,0.1
	c-2.5,0-4.9-0.1-4.9-2.8c0-0.3,0-0.6,0.1-0.9l1.5-9.4c0.6-3.6,3.2-3.7,6-3.7C90.9,35.7,92.5,35.7,93.9,35.8z M73.2,45.5l2.9,7H74
	l-2.7-6.9H71c-0.9,0-2.6-0.1-3.4-0.1l-1.1,7h-1.8l2.6-16.6c1.5-0.2,3.3-0.4,5.1-0.4c3.1,0,5.7,0.5,5.7,3.8c0,0.4,0,0.8-0.1,1.2
	C77.5,43.8,75.7,45.1,73.2,45.5z M72.2,37.1c-0.9,0-2.1,0.1-3.3,0.2L67.8,44c1.3,0.1,2.2,0.2,3.2,0.2c2.9,0,4.7-0.7,5.2-3.6
	c0.1-0.3,0.1-0.6,0.1-0.9C76.3,37.8,75.1,37.1,72.2,37.1z M73.1,7.2c-3,0-3.6,0.6-4,3.2l-0.4,2.8H76l-0.2,1.5h-7.3L68,17.8
	c-0.1,0.6-0.1,1-0.1,1.4c0,1.5,0.8,1.8,3.2,1.8H75l-0.2,1.5c-1.3,0.1-2.8,0.1-4.1,0.1c-2.5,0-4.9-0.1-4.9-2.8c0-0.3,0-0.6,0.1-0.9
	l1.5-9.4c0.6-3.6,3.2-3.7,6-3.7c1.1,0,2.7,0,4,0.1l-0.2,1.4h-4.1V7.2z M55.1,22.7c-0.7,0-1-0.4-1.1-1.3L52.4,10L47,21.4
	c-0.4,0.9-0.9,1.3-1.5,1.3s-1-0.4-1.1-1.3L43.3,5.7h1.8L46,20.2l5.3-11.3c0.4-0.9,0.8-1.2,1.5-1.2s1,0.4,1.1,1.3l1.6,11.3l5.4-14.5
	h1.8l-6,15.7C56.3,22.3,55.8,22.7,55.1,22.7z M42.9,37.4c-1-0.2-2.1-0.3-3.2-0.3c-2.4,0-4.6,0.3-4.9,2.6c-0.1,0.3-0.1,0.6-0.1,0.8
	c0,1.5,1,1.9,3.3,2.6c2.3,0.7,3.9,1.6,3.9,3.9c0,0.3,0,0.6-0.1,0.9c-0.5,3.5-2.8,4.7-6.6,4.7c-1.8,0-2.9-0.1-4.1-0.4l0.4-1.5
	c1.3,0.2,2.7,0.3,3.9,0.3c2.4,0,4.1-0.5,4.5-3c0-0.2,0.1-0.4,0.1-0.6c0-1.6-1.2-2.1-3.2-2.7c-2.4-0.8-4-1.5-4-3.7c0-0.3,0-0.6,0.1-1
	c0.5-3.4,2.7-4.5,6.3-4.5c1.5,0,3,0.2,4.1,0.4L42.9,37.4z M49.1,35.7h1.8l-1.8,11.5c-0.1,0.4-0.1,0.7-0.1,1c0,1.9,1.1,2.8,3.6,2.8
	c3,0,4.3-1.2,4.7-3.8l1.8-11.5H61l-1.8,11.4c-0.7,4.4-3.2,5.6-6.8,5.6c-3.1,0-5.2-0.9-5.2-4.1c0-0.5,0-1,0.1-1.5L49.1,35.7z
	 M107.3,35.7h10.8l-0.2,1.5h-4.5L111,52.5h-1.8l2.4-15.3h-4.5L107.3,35.7z M124.9,35.7l-1.2,7.4h8.5l1.2-7.4h1.8l-2.7,16.8h-1.8
	l1.2-7.8h-8.5l-1.2,7.8h-1.8l2.7-16.8H124.9z M158.1,35.7h10.8l-0.2,1.5h-4.5l-2.4,15.3H160l2.4-15.3h-4.5L158.1,35.7z"/>
<path id="XMLID_51_" class="st1" d="M196,66.4c-0.5-0.1-1-0.1-1.6-0.1c-1.4,0-2.6,0.2-3,1.5c-0.1,0.2-0.1,0.3-0.1,0.5
	c-0.1,0.8,0.3,1,1.6,1.4c1.1,0.4,1.9,0.8,1.7,2c0,0.1-0.1,0.3-0.1,0.4c-0.6,1.8-1.9,2.4-3.8,2.4c-0.9,0-1.4-0.1-2-0.2l0.3-0.6
	c0.7,0.1,1.3,0.2,1.9,0.2c1.3,0,2.4-0.3,2.9-1.7c0-0.1,0.1-0.2,0.1-0.3c0.2-0.9-0.4-1.2-1.5-1.5c-1.2-0.4-1.9-0.8-1.7-1.9
	c0-0.1,0.1-0.3,0.1-0.5c0.6-1.7,1.8-2.3,3.7-2.3c0.7,0,1.5,0.1,2,0.2L196,66.4z M187.8,70c-1,3-2.1,4.5-5.2,4.5
	c-0.9,0-1.8-0.1-2.5-0.2l2.9-8.5c0.8-0.1,1.7-0.2,2.6-0.2c2.4,0,3,0.9,2.7,2.6C188.2,68.8,188,69.4,187.8,70z M185.1,66.2
	c-0.5,0-1.1,0.1-1.6,0.1l-2.5,7.4c0.5,0.1,1.1,0.1,1.5,0.1c3.2,0,3.8-1.7,4.5-3.8c0.2-0.6,0.4-1.2,0.5-1.7
	C187.8,67,187.4,66.2,185.1,66.2z M176.8,74.5c-0.3,0-0.4-0.2-0.5-0.5l-2.2-7.3l-2.6,7.7h-0.7l2.8-8.3c0.1-0.4,0.4-0.5,0.6-0.5
	c0.3,0,0.4,0.2,0.5,0.5l2.2,7.3l2.6-7.7h0.7l-2.8,8.3C177.3,74.4,177.1,74.5,176.8,74.5z M167.9,71.8H164l-1.8,2.6h-0.7l5.9-8.3
	c0.2-0.3,0.4-0.5,0.7-0.5s0.4,0.2,0.4,0.5l0.3,8.3H168L167.9,71.8z M167.8,66.6l-3.3,4.6h3.4L167.8,66.6z M158.7,74.4l1.4-4.2h-4.8
	l-1.4,4.2h-0.7l2.9-8.7h0.7l-1.3,3.9h4.8l1.3-3.9h0.7l-2.9,8.7H158.7z M147.6,70c-1,3-2.1,4.5-5.2,4.5c-0.9,0-1.8-0.1-2.5-0.2
	l2.9-8.5c0.8-0.1,1.7-0.2,2.6-0.2c2.4,0,3,0.9,2.7,2.6C148,68.8,147.8,69.4,147.6,70z M144.9,66.2c-0.5,0-1.1,0.1-1.6,0.1l-2.5,7.4
	c0.5,0.1,1.1,0.1,1.5,0.1c3.2,0,3.8-1.7,4.5-3.8c0.2-0.6,0.4-1.2,0.5-1.7C147.6,67,147.2,66.2,144.9,66.2z M138.8,70
	c-1.1,3.2-2.2,4.5-4.8,4.5c-2,0-2.6-0.8-2.3-2.6c0.1-0.5,0.3-1.1,0.5-1.8c1.1-3.2,2.2-4.5,4.8-4.5c2,0,2.6,0.8,2.3,2.6
	C139.2,68.7,139,69.3,138.8,70z M136.8,66.2c-2.5,0-3.1,1.6-3.9,3.8c-0.2,0.7-0.4,1.4-0.5,1.9c-0.2,1.2,0.1,1.9,1.8,1.9
	c2.4,0,3.1-1.6,3.9-3.8c0.2-0.7,0.4-1.3,0.5-1.9C138.8,67,138.5,66.2,136.8,66.2z M129.9,70c-1.1,3.2-2.2,4.5-4.8,4.5
	c-2,0-2.6-0.8-2.3-2.6c0.1-0.5,0.3-1.1,0.5-1.8c1.1-3.2,2.2-4.5,4.8-4.5c2,0,2.6,0.8,2.3,2.6C130.3,68.7,130.1,69.3,129.9,70z
	 M127.9,66.2c-2.5,0-3.1,1.6-3.9,3.8c-0.2,0.7-0.4,1.4-0.5,1.9c-0.2,1.2,0.1,1.9,1.8,1.9c2.4,0,3.1-1.6,3.9-3.8
	c0.2-0.7,0.4-1.3,0.5-1.9C129.9,67,129.6,66.2,127.9,66.2z M119.9,66.2c-2.8,0-3.5,1.2-4.3,3.8c-0.2,0.7-0.4,1.3-0.5,1.7
	c-0.2,1.4,0.2,2.1,2.3,2.1c1.6,0,1.8-0.5,2-1.2l0.7-2.1h-1.6l0.2-0.6h2.3l-1.1,3.2c-0.4,1.3-1.6,1.4-3.2,1.4c-2.1,0-2.7-0.8-2.4-2.7
	c0.1-0.5,0.3-1.1,0.5-1.8c1.1-3.1,2.2-4.5,4.9-4.5c0.9,0,1.7,0.1,2.4,0.2l-0.3,0.6C121.2,66.3,120.5,66.2,119.9,66.2z M106,74.5
	c-0.3,0-0.4-0.2-0.5-0.5l-2.2-7.3l-2.6,7.7H100l2.8-8.3c0.1-0.4,0.4-0.5,0.6-0.5s0.4,0.2,0.5,0.5l2.2,7.3l2.6-7.7h0.7l-2.8,8.3
	C106.5,74.4,106.2,74.5,106,74.5z M96.5,74.4l2.9-8.7h0.7l-2.9,8.7H96.5z M90.4,66.3c-1.7,0-2.1,0.3-2.6,1.8l-0.5,1.6h3.9L91,70.3
	h-3.9L86.5,72c-0.1,0.3-0.2,0.6-0.2,0.8c-0.1,0.8,0.3,1,1.6,1H90l-0.2,0.6c-0.7,0-1.4,0-2.1,0c-1.3,0-2.5-0.1-2.3-1.4
	c0-0.1,0.1-0.3,0.1-0.5l1.7-5c0.6-1.8,2-1.9,3.4-1.9c0.5,0,1.3,0,2,0l-0.2,0.6h-2V66.3z M84.7,68.1c-0.6,1.7-1.7,2.4-3.1,2.6
	l0.9,3.7h-0.8l-0.8-3.7h-0.2c-0.5,0-1.5,0-1.9-0.1l-1.2,3.7h-0.7l2.9-8.6c0.8-0.1,1.7-0.2,2.6-0.2c1.6,0,2.9,0.3,2.6,1.9
	C84.8,67.7,84.8,67.9,84.7,68.1z M82.1,66.2c-0.5,0-1.2,0-1.9,0.1L78.9,70c0.8,0.1,1.3,0.1,1.8,0.1c1.6,0,2.7-0.4,3.2-2
	c0.1-0.2,0.1-0.3,0.1-0.5C84.3,66.6,83.7,66.2,82.1,66.2z M73.8,71.8H70l-1.8,2.6h-0.7l5.9-8.3c0.2-0.3,0.4-0.5,0.7-0.5
	s0.4,0.2,0.4,0.5l0.3,8.3H74L73.8,71.8z M73.7,66.6l-3.3,4.6h3.4L73.7,66.6z M62,66.3c-1.7,0-2.1,0.3-2.6,1.8l-0.5,1.6h3.9l-0.2,0.6
	h-3.9L58.1,72c-0.1,0.3-0.2,0.6-0.2,0.8c-0.1,0.8,0.3,1,1.6,1h2.1l-0.2,0.6c-0.7,0-1.4,0-2.1,0c-1.3,0-2.5-0.1-2.3-1.4
	c0-0.1,0.1-0.3,0.1-0.5l1.7-5c0.6-1.8,2-1.9,3.4-1.9c0.5,0,1.3,0,2,0L64,66.2h-2V66.3z M55,66.3c-1.7,0-2.1,0.3-2.6,1.8l-0.5,1.6
	h3.9l-0.2,0.6h-3.9l-1.4,4.1h-0.7l2.3-6.9c0.6-1.8,2-1.9,3.4-1.9c0.5,0,1.3,0,2,0l-0.2,0.6H55V66.3z M46.1,74.4l2.9-8.7h0.7
	l-2.9,8.7H46.1z M42.5,73.8h1.9l-0.2,0.6c-0.7,0-1.3,0-1.9,0c-1.3,0-2.5-0.1-2.3-1.4c0-0.1,0.1-0.3,0.1-0.5l2.3-6.9h0.7l-2,6.4
	c-0.1,0.3-0.2,0.6-0.2,0.8C40.8,73.6,41.2,73.8,42.5,73.8z M34.9,68.1c-0.6,1.7-1.7,2.4-3.1,2.6l0.9,3.7h-0.8l-0.8-3.7h-0.2
	c-0.5,0-1.5,0-1.9-0.1l-1.2,3.7H27l2.9-8.6c0.8-0.1,1.7-0.2,2.6-0.2c1.6,0,2.9,0.3,2.6,1.9C35.1,67.7,35,67.9,34.9,68.1z M32.3,66.2
	c-0.5,0-1.2,0-1.9,0.1L29.2,70c0.8,0.1,1.3,0.1,1.8,0.1c1.6,0,2.7-0.4,3.2-2c0.1-0.2,0.1-0.3,0.1-0.5C34.5,66.6,33.9,66.2,32.3,66.2
	z M21.1,74.5c-1.6,0-2.6-0.5-2.3-2.1c0-0.2,0.1-0.5,0.2-0.8l2-6h0.7l-2,6.1c-0.1,0.2-0.1,0.4-0.1,0.6c-0.2,1.1,0.3,1.6,1.8,1.6
	c1.7,0,2.6-0.7,3.1-2.1l2-6.1h0.7l-2,6C24.4,73.9,23,74.5,21.1,74.5z M17.1,70c-1.1,3.2-2.2,4.5-4.8,4.5c-2,0-2.6-0.8-2.3-2.6
	c0.1-0.5,0.3-1.1,0.5-1.8c1.1-3.2,2.2-4.5,4.8-4.5c2,0,2.6,0.8,2.3,2.6C17.5,68.7,17.3,69.3,17.1,70z M15.1,66.2
	c-2.5,0-3.1,1.6-3.9,3.8c-0.2,0.7-0.4,1.4-0.5,1.9c-0.2,1.2,0.1,1.9,1.8,1.9c2.4,0,3.1-1.6,3.9-3.8c0.2-0.7,0.4-1.3,0.5-1.9
	C17.1,67,16.8,66.2,15.1,66.2z M4.5,74.4H3.8L4.9,71L4,65.7h0.8l0.8,4.6l3.9-4.6h0.8L5.6,71L4.5,74.4z"/>
</svg>
