<?xml version="1.0" encoding="utf-8"?>
<!-- Generator: Adobe Illustrator 19.0.0, SVG Export Plug-In . SVG Version: 6.00 Build 0)  -->
<svg version="1.1" id="图层_1" xmlns="http://www.w3.org/2000/svg" xmlns:xlink="http://www.w3.org/1999/xlink" x="0px" y="0px"
	 viewBox="0 0 270 180" style="enable-background:new 0 0 270 180;" xml:space="preserve">
<style type="text/css">
	.st0{fill:#3BBE7A;}
	.st1{opacity:0.8;fill:#3BBE7A;enable-background:new    ;}
</style>
<path id="XMLID_152_" class="st0" d="M35.8,40.8c1.5,0,2.6-0.9,3.4-2.9L52.7,2.6h-4L36.5,35.2L32.9,9.8c-0.3-2-1-2.8-2.4-2.8
	s-2.4,0.9-3.3,2.8l-12,25.5l-2-32.6H9l2.5,35.2c0.1,2,1,2.9,2.5,2.9s2.5-0.9,3.5-2.9l12-25.5l3.7,25.5
	C33.5,39.8,34.3,40.8,35.8,40.8z M80,40.3l0.5-3.3h-9.3c-5.4,0-7.1-0.8-7.1-4c0-0.9,0.1-1.9,0.3-3.1l1.1-7h16.4l0.5-3.4H66l1-6.2
	c1-6,2.3-7.2,9.1-7.2h9.3l0.5-3.3c-3-0.1-6.7-0.2-9.1-0.2C70.5,2.6,64.6,3,63.3,11l-3.4,21.3c-0.1,0.7-0.2,1.4-0.2,2
	c0,6,5.3,6.3,11,6.3C73.6,40.5,77,40.4,80,40.3z M149.6,8.8l-3.3,31.5h4l3.6-35.2c0-0.2,0-0.4,0-0.6c0-1.6-0.7-2.3-2.2-2.3
	c-1.2,0-2.4,0.9-3.5,2.7l-15,24.9l-7-24.9c-0.5-1.8-1.4-2.6-2.7-2.6c-1.6,0-2.6,0.9-3.1,2.9l-7.7,35.2h3.9l6.8-31.6l6.8,24.4
	c0.4,1.4,1,2.1,2.1,2.1s1.9-0.7,2.7-2.1L149.6,8.8L149.6,8.8z M188.5,40.4h4.3l-7-35.3c-0.4-1.9-1.3-2.8-2.8-2.8s-2.7,0.9-3.7,2.8
	l-18.4,35.3h4.2l5.5-10.9h15.8L188.5,40.4z M172.3,26.2L182.1,7l3.7,19.2C185.8,26.2,172.3,26.2,172.3,26.2z M211.4,20.1l2.8-17.5
	h-4.1l-6,37.8h4.1l2.9-18.5l13.4,18.5h5.2l-14.3-19.6l19.9-18.2h-5L211.4,20.1z M258.2,6h9.3l0.5-3.3c-3-0.1-6.7-0.2-9.1-0.2
	c-6.3,0-12.2,0.4-13.5,8.4L242,32.2c-0.1,0.7-0.2,1.4-0.2,2c0,6,5.3,6.3,11,6.3c2.8,0,6.2,0,9.2-0.2l0.5-3.3h-9.3
	c-5.4,0-7.1-0.8-7.1-4c0-0.9,0.1-1.9,0.3-3.1l1.1-7h16.4l0.5-3.4H248l1-6.2C250.1,7.3,251.4,6,258.2,6z M6.8,67
	c-0.1,0.6-0.1,1.2-0.1,1.8c0,4.1,2.9,5.5,7.5,6.9c3.6,1.1,5.9,2.1,5.9,5.1c0,0.4,0,0.7-0.1,1.1c-0.7,4.7-4,5.7-8.5,5.7
	c-2.2,0-4.9-0.2-7.3-0.6l-0.8,3c2.3,0.5,4.5,0.7,7.8,0.7c7,0,11.3-2.4,12.3-8.9c0.1-0.6,0.1-1.2,0.1-1.7c0-4.3-3-6-7.3-7.3
	c-4.4-1.3-6.2-2.1-6.2-4.9c0-0.5,0-1,0.1-1.5c0.7-4.2,4.8-4.8,9.2-4.8c2.1,0,4.2,0.3,6.1,0.5l0.7-2.8c-2.1-0.4-4.9-0.7-7.7-0.7
	C11.9,58.6,7.8,60.7,6.8,67z M52.7,80.6c-0.8,4.9-3.3,7.2-8.9,7.2c-4.8,0-6.8-1.7-6.8-5.2c0-0.6,0.1-1.2,0.2-1.9l3.4-21.6h-3.4
	l-3.4,21.3c-0.2,1.1-0.2,2-0.2,2.9c0,6,3.8,7.6,9.7,7.6c6.7,0,11.5-2.2,12.8-10.5l3.4-21.3h-3.4L52.7,80.6z M80.8,58.6
	c-3.3,0-6.8,0.3-9.5,0.7l-4.9,31h3.3l2.1-13.1c1.5,0.1,4.6,0.2,6.3,0.2h0.5l5.1,13h4l-5.4-13.2c4.7-0.7,8-3.1,9-9.3
	c0.1-0.8,0.2-1.6,0.2-2.3C91.5,59.6,86.7,58.6,80.8,58.6z M87.9,67.9c-0.9,5.3-4.2,6.7-9.7,6.7c-1.8,0-3.5,0-6-0.3l2-12.5
	c2.3-0.3,4.5-0.4,6.3-0.4c5.4,0,7.6,1.4,7.6,4.8C88.1,66.7,88,67.3,87.9,67.9z M102.3,65.8l-2.8,17.7c-0.1,0.6-0.1,1.2-0.1,1.7
	c0,5,4.4,5.2,9.2,5.2c2.4,0,5.2,0,7.6-0.1l0.4-2.8h-7.7c-4.5,0-5.9-0.6-5.9-3.4c0-0.7,0.1-1.6,0.3-2.6l0.9-5.8h13.7l0.4-2.8h-13.7
	l0.8-5.2c0.8-5,1.9-6,7.6-6h7.7l0.4-2.7c-2.5-0.1-5.6-0.2-7.6-0.2C108.3,58.8,103.3,59.1,102.3,65.8z M145.9,61.8h8.4l-4.5,28.6h3.4
	l4.5-28.6h8.4l0.5-2.9h-20.3L145.9,61.8z M193.1,72.8h-16l2.2-13.9h-3.4l-5,31.5h3.4l2.3-14.7h16l-2.3,14.7h3.4l5-31.5h-3.4
	L193.1,72.8z M221.6,58.6c-1.3,0-2.3,0.8-3.1,2.4l-15.3,29.4h3.5l4.6-9h13.2l1.7,9h3.6L223.9,61C223.6,59.4,222.9,58.6,221.6,58.6z
	 M212.7,78.6l8.2-16l3.1,16H212.7z M241,61.8h8.4l-4.5,28.6h3.4l4.5-28.6h8.4l0.5-2.9h-20.3L241,61.8z"/>
<path id="XMLID_333_" class="st1" d="M5.4,142.5l2.3-6.8l9.1-10.7h-1.5l-7.7,9.1L6,125H4.4l1.9,10.7L4,142.5H5.4z M21,142.7
	c5.1,0,7.4-2.6,9.6-8.9c0.5-1.4,0.8-2.6,1-3.7c0.7-3.7-0.6-5.3-4.6-5.3c-5.1,0-7.4,2.6-9.6,8.9c-0.5,1.4-0.8,2.6-1,3.7
	C15.8,141.2,17,142.7,21,142.7z M17.8,137.6c0.2-1.1,0.6-2.4,1.1-3.8c1.5-4.5,2.8-7.6,7.7-7.6c3.3,0,4,1.5,3.6,3.9
	c-0.2,1.1-0.6,2.4-1.1,3.8c-1.5,4.5-2.9,7.6-7.7,7.6C18,141.4,17.4,140,17.8,137.6z M46.8,137l4-11.9h-1.4l-4,12.1
	c-1,2.9-2.7,4.3-6.1,4.3c-2.9,0-3.9-1-3.5-3.2c0.1-0.3,0.2-0.7,0.3-1.1l4.1-12.1h-1.4l-4,11.9c-0.2,0.6-0.3,1.1-0.4,1.6
	c-0.6,3.3,1.4,4.2,4.6,4.2C42.4,142.7,45.3,141.5,46.8,137z M58.2,135.2h0.4l1.7,7.3H62l-1.8-7.4c2.8-0.4,5-1.6,6.2-5.1
	c0.1-0.5,0.3-0.9,0.3-1.2c0.6-3.3-2-3.9-5.2-3.9c-1.8,0-3.6,0.2-5.3,0.4l-5.8,17.3h1.4l2.5-7.5C55.2,135.1,57.2,135.2,58.2,135.2z
	 M57.3,126.4c1.5-0.2,2.8-0.3,3.9-0.3c3.2,0,4.4,0.8,4,2.9c-0.1,0.3-0.1,0.6-0.3,1c-1.1,3.1-3.2,4-6.5,4c-1.1,0-2.1,0-3.6-0.2
	L57.3,126.4z M85,142.5l0.4-1.2h-3.8c-2.8,0-3.6-0.4-3.3-2c0.1-0.4,0.2-0.9,0.4-1.5l4.3-12.7h-1.4L77,138.9
	c-0.1,0.3-0.2,0.6-0.2,0.9c-0.5,2.7,1.9,2.8,4.5,2.8C82.4,142.6,83.5,142.6,85,142.5z M96,125.1h-1.4l-5.9,17.4h1.4L96,125.1z
	 M97.1,142.5l2.8-8.3h7.8l0.4-1.2h-7.8l1-3.1c1-3,1.8-3.6,5.2-3.6h4.2l0.4-1.2c-1.4-0.1-3-0.1-4.1-0.1c-2.9,0-5.6,0.2-6.8,3.8
	l-4.6,13.8L97.1,142.5L97.1,142.5z M119.2,142.5l0.4-1.2h-4.2c-2.8,0-3.6-0.4-3.3-2c0.1-0.4,0.2-0.9,0.4-1.6l1.2-3.5h7.8l0.4-1.2
	h-7.8l1.1-3.1c1-3,1.8-3.6,5.2-3.6h4.2l0.4-1.2c-1.4-0.1-3-0.1-4.1-0.1c-2.8,0-5.6,0.2-6.8,3.8l-3.4,10.1c-0.1,0.3-0.2,0.6-0.2,0.9
	c-0.5,2.7,1.9,2.8,4.5,2.8C116.5,142.6,117.8,142.6,119.2,142.5z M136.4,137.4h7.7l0.2,5.2h1.5l-0.6-16.7c0-0.7-0.2-1-0.7-1
	s-0.9,0.3-1.4,1l-11.8,16.7h1.5L136.4,137.4z M143.8,126.9l0.3,9.3h-6.8L143.8,126.9z M161,124.9c-1.8,0-3.6,0.2-5.3,0.4l-5.8,17.3
	h1.4l2.5-7.5c0.9,0,2.9,0.1,3.8,0.1h0.4l1.7,7.3h1.7l-1.8-7.4c2.8-0.4,5-1.6,6.2-5.1c0.1-0.5,0.3-0.9,0.3-1.2
	C166.8,125.4,164.2,124.9,161,124.9z M164.7,129c-0.1,0.3-0.1,0.6-0.3,1c-1.1,3.1-3.2,4-6.5,4c-1.1,0-2.1,0-3.6-0.2l2.5-7.4
	c1.5-0.2,2.8-0.3,3.9-0.3C163.9,126.1,165.1,126.9,164.7,129z M171,128.8l-3.4,10.1c-0.1,0.3-0.2,0.6-0.2,0.9
	c-0.5,2.7,1.9,2.8,4.5,2.8c1.4,0,2.7,0,4.1-0.1l0.4-1.2h-4.2c-2.8,0-3.6-0.4-3.3-2c0.1-0.4,0.2-0.9,0.4-1.6l1.2-3.5h7.8l0.4-1.2
	h-7.8l1.1-3.1c1-3,1.8-3.6,5.2-3.6h4.2l0.4-1.2c-1.4-0.1-3-0.1-4.1-0.1C175,125,172.2,125.2,171,128.8z M195.4,125.1l-5.9,17.5h1.4
	l5.9-17.5H195.4z M213.9,125.1l-5.2,15.5l-4.4-14.7c-0.2-0.6-0.4-1-0.9-1s-1,0.3-1.2,1l-5.6,16.6h1.4l5.2-15.5l4.4,14.7
	c0.2,0.6,0.4,1,0.9,1s1-0.3,1.2-1l5.6-16.6H213.9z M2.6,168.8c-0.5,1.4-0.8,2.6-1,3.6c-0.6,3.7,0.6,5.3,4.8,5.3
	c3.1,0,5.5-0.2,6.4-2.8l2.1-6.4h-4.6l-0.4,1.2h3.2l-1.4,4.3c-0.5,1.4-1,2.4-4.1,2.4c-4.1,0-5-1.4-4.5-4.1c0.2-1,0.5-2.1,1-3.5
	c1.7-5.1,3.1-7.6,8.7-7.6c1.1,0,2.6,0.1,3.9,0.3l0.5-1.2c-1.4-0.2-3-0.4-4.8-0.4C6.9,159.9,4.7,162.5,2.6,168.8z M29,159.9
	c-5.1,0-7.4,2.6-9.6,8.9c-0.5,1.4-0.8,2.6-1,3.7c-0.7,3.7,0.6,5.2,4.6,5.2c5.1,0,7.4-2.6,9.6-8.9c0.5-1.4,0.8-2.6,1-3.7
	C34.2,161.4,33,159.9,29,159.9z M32.2,165c-0.2,1.1-0.6,2.4-1.1,3.8c-1.5,4.5-2.9,7.6-7.7,7.6c-3.4,0-4-1.5-3.6-3.8
	c0.2-1.1,0.6-2.4,1.1-3.8c1.5-4.5,2.8-7.6,7.7-7.6C32,161.2,32.6,162.6,32.2,165z M46.9,159.9c-5.1,0-7.4,2.6-9.6,8.9
	c-0.5,1.4-0.8,2.6-1,3.7c-0.7,3.7,0.6,5.2,4.6,5.2c5.1,0,7.4-2.6,9.6-8.9c0.5-1.4,0.8-2.6,1-3.7C52.1,161.4,50.9,159.9,46.9,159.9z
	 M50.1,165c-0.2,1.1-0.6,2.4-1.1,3.8c-1.5,4.5-2.9,7.6-7.7,7.6c-3.4,0-4-1.5-3.6-3.8c0.2-1.1,0.6-2.4,1.1-3.8
	c1.5-4.5,2.8-7.6,7.7-7.6C49.9,161.2,50.5,162.6,50.1,165z M63.7,159.9c-1.7,0-3.6,0.1-5.2,0.4l-5.8,17c1.5,0.2,3.2,0.4,5,0.4
	c6.3,0,8.4-3,10.4-8.9c0.5-1.4,0.8-2.6,1-3.6C69.7,161.6,68.5,159.9,63.7,159.9z M67.6,165.3c-0.2,1-0.6,2.2-1,3.5
	c-1.5,4.3-2.6,7.6-9,7.6c-0.9,0-2.1-0.1-3.1-0.3l5-14.8c1.1-0.1,2.3-0.2,3.2-0.2C67.3,161.2,68.1,162.8,67.6,165.3z M96.1,160.1
	l-2.7,7.9h-9.7l2.7-7.9H85l-5.9,17.5h1.4l2.8-8.3H93l-2.8,8.3h1.5l5.9-17.5C97.6,160.1,96.1,160.1,96.1,160.1z M109.1,159.9
	c-0.5,0-0.9,0.3-1.4,1l-11.8,16.7h1.5l3.6-5.2h7.7l0.2,5.2h1.5l-0.6-16.7C109.8,160.2,109.6,159.9,109.1,159.9z M101.8,171.1
	l6.5-9.3l0.3,9.3H101.8z M131.9,160.1l-5.2,15.5l-4.4-14.7c-0.2-0.6-0.4-1-0.9-1s-1,0.3-1.2,1l-5.6,16.6h1.4l5.2-15.5l4.4,14.7
	c0.2,0.6,0.4,1,0.9,1s1-0.3,1.2-1l5.6-16.6H131.9L131.9,160.1z M144,159.9c-1.7,0-3.6,0.1-5.2,0.4l-5.7,17.1c1.5,0.2,3.2,0.4,5,0.4
	c6.3,0,8.4-3,10.4-8.9c0.5-1.4,0.8-2.6,1-3.6C150,161.6,148.8,159.9,144,159.9z M148,165.3c-0.2,1-0.6,2.2-1,3.5
	c-1.5,4.3-2.6,7.6-9,7.6c-0.9,0-2.1-0.1-3.1-0.3l5-14.8c1.1-0.1,2.3-0.2,3.2-0.2C147.6,161.2,148.4,162.8,148,165.3z M154,164.4
	c-0.1,0.4-0.2,0.7-0.3,1c-0.4,2.3,1.1,3,3.5,3.8c2.1,0.7,3.3,1.3,3,3.1c0,0.2-0.1,0.4-0.2,0.7c-0.9,2.8-3.1,3.5-5.7,3.5
	c-1.2,0-2.6-0.1-3.9-0.3l-0.6,1.2c1.2,0.3,2.3,0.4,4.1,0.4c3.9,0,6.4-1.3,7.6-4.8c0.1-0.3,0.2-0.6,0.2-0.9c0.4-2.4-1.2-3.4-3.4-4.1
	c-2.5-0.8-3.4-1.3-3.1-2.9c0.1-0.3,0.1-0.6,0.3-1c0.8-2.4,3.2-2.9,6-2.9c1.1,0,2.2,0.1,3.2,0.3l0.5-1.2c-1.1-0.2-2.6-0.4-4.1-0.4
	C157.6,159.9,155.1,161,154,164.4z"/>
</svg>
