<?xml version="1.0" encoding="UTF-8"?>
<svg width="231px" height="24px" viewBox="0 0 231 24" version="1.1" xmlns="http://www.w3.org/2000/svg" xmlns:xlink="http://www.w3.org/1999/xlink">
    <!-- Generator: Sketch 51.3 (57544) - http://www.bohemiancoding.com/sketch -->
    <title>bnp-paribas-logo</title>
    <desc>Created with Sketch.</desc>
    <defs></defs>
    <g id="Page-1" stroke="none" stroke-width="1" fill="none" fill-rule="evenodd">
        <g id="Home-R2a-2" transform="translate(-1069.000000, -607.000000)" fill="#FFFFFF" fill-rule="nonzero">
            <g id="Quote-Module" transform="translate(957.000000, 135.000000)">
                <g id="Logo_BNP_Paribas" transform="translate(112.000000, 472.000000)">
                    <g id="bnp-paribas-logo" transform="translate(0.068729, 0.000000)">
                        <path d="M0.343661325,0.890909091 C0.4582151,3.14545455 0.572768875,9.00727273 0.572768875,11.1490909 C0.572768875,13.0654545 0.572768875,19.6036364 0.22910755,22.4218182 L0.22910755,22.6472727 L10.6535011,22.6472727 C15.8084209,22.6472727 21.1924484,21.0690909 21.1924484,16.6727273 C21.1924484,13.8545455 19.1304804,11.8254545 15.3502058,10.6981818 C18.2140502,9.90909091 20.0469106,7.99272727 20.0469106,5.85090909 C20.0469106,2.24363636 15.8084209,0.890909091 11.7990388,0.778181818 L0.343661325,0.778181818 L0.343661325,0.890909091 Z M8.36242557,3.14545455 C12.715469,3.14545455 14.3192219,4.04727273 14.3192219,6.41454545 C14.3192219,7.09090909 14.0901143,7.65454545 13.746453,8.10545455 C12.9445766,9.12 11.3408237,9.57090909 9.27885577,9.45818182 L9.164302,9.45818182 L7.90421047,12.6145455 L9.164302,12.6145455 C11.5699313,12.5018182 13.6318992,13.2909091 14.6628832,14.5309091 C15.1210983,15.0945455 15.3502058,15.7709091 15.3502058,16.56 C15.3502058,18.9272727 13.1736841,20.28 8.93519445,20.28 C8.2478718,20.28 6.98778027,20.28 6.30045762,20.28 C6.18590385,17.0109091 6.07135007,12.6145455 6.07135007,11.3745455 C6.07135007,9.79636364 6.18590385,6.41454545 6.30045762,3.48363636 C6.75867272,3.25818182 7.56054915,3.14545455 8.36242557,3.14545455 Z" id="Shape"></path>
                        <path d="M45.0196336,0.778181818 L39.9792675,0.778181818 L40.208375,6.30181818 C40.3229288,9.00727273 40.4374826,11.8254545 40.5520363,14.6436364 C40.208375,13.7418182 39.8647137,13.2909091 38.3755146,11.1490909 C38.3755146,11.0363636 33.106041,3.14545455 31.2731806,0.890909091 L25.430938,0.890909091 L25.430938,1.11636364 C25.6600456,3.37090909 25.6600456,9.23272727 25.6600456,11.3745455 C25.6600456,13.2909091 25.6600456,19.8290909 25.430938,22.6472727 L25.430938,22.8727273 L30.7004117,22.8727273 L30.7004117,22.6472727 C30.3567504,17.2363636 30.3567504,11.8254545 30.3567504,6.64 C30.5858579,7.31636364 30.8149655,7.76727273 31.6168419,9.00727273 C31.7313957,9.12 40.6665901,22.0836364 41.1248052,22.76 L41.1248052,22.8727273 L45.3632949,22.8727273 L45.3632949,22.6472727 C45.0196336,19.8290909 45.0196336,13.2909091 45.0196336,11.3745455 C45.0196336,9.23272727 45.1341873,3.48363636 45.2487411,1.11636364 L45.3632949,0.890909091 L45.0196336,0.890909091 L45.0196336,0.778181818 Z" id="Shape"></path>
                        <path d="M51.0909836,0.890909091 C51.3200912,3.14545455 51.3200912,9.00727273 51.3200912,11.1490909 C51.3200912,13.0654545 51.3200912,19.6036364 50.9764299,22.4218182 L50.9764299,22.6472727 L57.1623337,22.6472727 L57.1623337,22.4218182 C56.9332262,20.3927273 56.8186724,16.56 56.8186724,13.5163636 C57.1623337,13.5163636 57.9642101,13.6290909 57.9642101,13.6290909 L58.8806403,13.6290909 C67.0139584,13.6290909 71.0233405,11.4872727 71.0233405,6.97818182 C71.0233405,1.90545455 65.4102055,0.665454545 60.8280545,0.665454545 L50.9764299,0.665454545 L50.9764299,0.890909091 L51.0909836,0.890909091 Z M58.7660866,3.37090909 C61.6299309,3.37090909 63.6918989,3.93454545 64.7228829,5.06181818 C65.181098,5.62545455 65.4102055,6.30181818 65.4102055,7.09090909 C65.4102055,10.2472727 61.7444847,10.9236364 58.7660866,10.9236364 L57.505995,10.8109091 C57.505995,10.8109091 57.1623337,10.8109091 57.0477799,10.8109091 C57.0477799,10.0218182 57.0477799,9.12 57.0477799,7.99272727 C57.0477799,6.64 57.0477799,4.94909091 57.1623337,3.48363636 C57.3914413,3.48363636 58.0787639,3.37090909 58.7660866,3.37090909 Z" id="Shape"></path>
                        <path d="M83.0514868,0.890909091 C83.2805944,3.14545455 83.3951482,9.00727273 83.3951482,11.1490909 C83.3951482,13.0654545 83.3951482,19.6036364 83.0514868,22.4218182 L83.0514868,22.6472727 L89.2373907,22.6472727 L89.2373907,22.4218182 C89.0082831,20.3927273 88.8937294,16.56 88.8937294,13.5163636 C89.2373907,13.5163636 90.0392671,13.6290909 90.0392671,13.6290909 L90.9556973,13.6290909 C99.0890153,13.6290909 103.098397,11.4872727 103.098397,6.97818182 C103.098397,1.90545455 97.4852625,0.665454545 92.7885577,0.665454545 L83.0514868,0.665454545 L83.0514868,0.890909091 Z M90.612036,3.37090909 C93.4758804,3.37090909 95.5378483,3.93454545 96.5688323,5.06181818 C97.0270474,5.62545455 97.2561549,6.30181818 97.2561549,7.09090909 C97.2561549,10.2472727 93.5904341,10.9236364 90.612036,10.9236364 L89.3519445,10.8109091 C89.3519445,10.8109091 89.0082831,10.8109091 88.8937294,10.8109091 C88.8937294,10.0218182 88.8937294,9.12 88.8937294,7.99272727 C88.8937294,6.64 88.8937294,4.94909091 89.0082831,3.48363636 C89.2373907,3.48363636 89.9247133,3.37090909 90.612036,3.37090909 Z" id="Shape"></path>
                        <path d="M111.346269,0.778181818 L111.231715,0.890909091 C110.086178,4.04727273 102.640182,20.0545455 101.494645,22.5345455 L101.380091,22.76 L106.649564,22.76 L106.649564,22.6472727 C107.10778,21.1818182 107.795102,19.4909091 108.367871,17.5745455 C108.596979,17.5745455 112.835468,17.4618182 112.835468,17.4618182 L116.501189,17.4618182 C116.501189,17.4618182 117.073958,17.4618182 117.303066,17.4618182 C118.219496,19.8290909 119.021372,21.6327273 119.25048,22.5345455 L119.365034,22.6472727 L125.550937,22.6472727 L115.584759,0.665454545 L115.470205,0.665454545 L111.346269,0.665454545 L111.346269,0.778181818 Z M112.835468,7.20363636 C113.293683,8.21818182 114.553775,11.1490909 116.042974,14.6436364 C115.813866,14.6436364 115.584759,14.6436364 115.584759,14.6436364 L112.835468,14.6436364 C112.835468,14.6436364 109.971624,14.6436364 109.513409,14.6436364 C110.7735,11.8254545 111.919038,9.34545455 112.835468,7.20363636 Z" id="Shape"></path>
                        <path d="M127.956567,0.890909091 C128.185674,3.14545455 128.185674,9.00727273 128.185674,11.1490909 C128.185674,13.0654545 128.185674,19.6036364 127.842013,22.4218182 L127.842013,22.6472727 L134.14247,22.6472727 L134.14247,22.4218182 C133.798809,19.6036364 133.798809,13.0654545 133.798809,11.1490909 C133.798809,9.57090909 133.798809,6.18909091 134.027917,3.48363636 C134.486132,3.48363636 135.173454,3.37090909 135.746223,3.37090909 C138.610068,3.37090909 140.672036,3.93454545 141.588466,5.06181818 C142.046681,5.62545455 142.275789,6.30181818 142.275789,7.09090909 C142.275789,9.68363636 139.870159,10.9236364 137.579084,11.0363636 C136.777207,11.0363636 136.318992,10.9236364 136.318992,10.9236364 L135.860777,10.8109091 L136.089885,11.2618182 C138.266406,14.4181818 141.588466,19.9418182 142.963111,22.5345455 L142.963111,22.6472727 L149.60723,22.6472727 L149.492676,22.3090909 C149.263569,21.9709091 144.910525,15.6581818 143.077665,12.9527273 C143.077665,12.9527273 142.963111,12.84 142.963111,12.84 C146.399724,11.8254545 148.003477,9.90909091 148.003477,7.09090909 C148.003477,2.01818182 142.390342,0.778181818 137.693638,0.778181818 L127.956567,0.778181818 L127.956567,0.890909091 Z" id="Shape"></path>
                        <path d="M158.542425,0.778181818 L152.585628,0.778181818 L152.585628,1.00363636 C152.700182,3.25818182 152.814736,9.12 152.814736,11.2618182 C152.814736,13.1781818 152.814736,19.7163636 152.471074,22.5345455 L152.471074,22.76 L158.656978,22.76 L158.656978,22.5345455 C158.427871,19.7163636 158.313317,13.1781818 158.313317,11.2618182 C158.313317,9.12 158.427871,3.37090909 158.656978,1.00363636 L158.656978,0.778181818 L158.542425,0.778181818 Z" id="Shape"></path>
                        <path d="M164.384667,0.890909091 C164.613775,3.14545455 164.728328,9.00727273 164.728328,11.1490909 C164.728328,13.0654545 164.728328,19.6036364 164.384667,22.4218182 L164.384667,22.6472727 L174.809061,22.6472727 C179.849427,22.6472727 185.348008,21.0690909 185.348008,16.6727273 C185.348008,13.8545455 183.28604,11.8254545 179.391212,10.6981818 C182.255056,9.90909091 184.20247,7.99272727 184.20247,5.85090909 C184.20247,2.24363636 179.96398,0.890909091 175.954598,0.778181818 L164.499221,0.778181818 L164.384667,0.890909091 Z M172.403431,3.14545455 C176.756475,3.14545455 178.360228,4.04727273 178.360228,6.41454545 C178.360228,7.09090909 178.13112,7.65454545 177.787459,8.10545455 C176.985582,9.12 175.267276,9.57090909 173.319862,9.45818182 L173.205308,9.45818182 L172.05977,12.6145455 L173.205308,12.6145455 C175.610937,12.5018182 177.672905,13.2909091 178.703889,14.5309091 C179.276658,15.0945455 179.505765,15.7709091 179.505765,16.56 C179.505765,18.9272727 177.329244,20.28 172.9762,20.28 C172.288878,20.28 171.14334,20.28 170.341463,20.28 C170.112356,17.0109091 170.112356,12.6145455 170.112356,11.3745455 C170.112356,9.79636364 170.22691,6.41454545 170.341463,3.48363636 C170.799678,3.25818182 171.601555,3.14545455 172.403431,3.14545455 Z" id="Shape"></path>
                        <path d="M200.469106,0.778181818 L196.34517,0.778181818 L196.34517,0.890909091 C195.085079,4.27272727 187.180868,21.0690909 186.608099,22.4218182 L186.493546,22.76 L191.763019,22.76 L191.763019,22.6472727 C192.221234,21.1818182 192.794003,19.4909091 193.481326,17.5745455 C193.59588,17.5745455 197.834369,17.4618182 197.834369,17.4618182 L201.50009,17.4618182 C201.50009,17.4618182 202.187413,17.4618182 202.301967,17.4618182 C203.218397,19.8290909 204.020273,21.6327273 204.249381,22.5345455 L204.363935,22.6472727 L210.549838,22.6472727 L200.698214,0.665454545 L200.469106,0.665454545 L200.469106,0.778181818 Z M197.834369,7.20363636 C198.292584,8.21818182 199.552676,11.1490909 201.041875,14.6436364 C200.812768,14.6436364 200.58366,14.6436364 200.58366,14.6436364 L197.834369,14.6436364 C197.834369,14.6436364 194.970525,14.5309091 194.51231,14.5309091 C195.772401,11.8254545 196.917939,9.34545455 197.834369,7.20363636 Z" id="Shape"></path>
                        <path d="M212.268145,6.41454545 C212.268145,10.2472727 216.162973,11.8254545 219.71414,13.2909091 C222.463431,14.3054545 225.212722,15.4327273 225.212722,17.3490909 C225.212722,17.9127273 225.098168,18.3636364 224.754506,18.7018182 C224.067184,19.4909091 222.807092,19.8290909 220.745124,19.7163636 C218.683156,19.6036364 216.277527,19.04 213.64279,17.8 L212.611806,17.3490909 L212.611806,18.2509091 L212.611806,22.1963636 L213.299129,22.4218182 L213.757344,22.5345455 C215.017436,22.8727273 217.537619,23.4363636 220.057802,23.4363636 C226.587367,23.4363636 230.482195,20.8436364 230.482195,16.56 C230.482195,12.6145455 226.472813,11.0363636 222.921646,9.57090909 C220.286909,8.55636364 217.537619,7.42909091 217.537619,5.73818182 C217.537619,5.28727273 217.537619,3.82181818 220.974232,3.82181818 C223.494415,3.82181818 225.900044,4.83636364 227.27469,5.4 L228.534781,5.96363636 L228.534781,5.17454545 L228.534781,1.22909091 L227.27469,1.00363636 C226.014598,0.778181818 223.838076,0.327272727 221.661555,0.327272727 C216.04842,-0.0109090909 212.268145,2.58181818 212.268145,6.41454545 Z" id="Shape"></path>
                    </g>
                </g>
            </g>
        </g>
    </g>
</svg>