<?xml version="1.0" encoding="UTF-8"?>
<svg width="293px" height="20px" viewBox="0 0 293 20" version="1.1" xmlns="http://www.w3.org/2000/svg" xmlns:xlink="http://www.w3.org/1999/xlink">
    <!-- Generator: Sketch 51.3 (57544) - http://www.bohemiancoding.com/sketch -->
    <title>jp-morgan-chase-logo</title>
    <desc>Created with Sketch.</desc>
    <defs></defs>
    <g id="Page-1" stroke="none" stroke-width="1" fill="none" fill-rule="evenodd">
        <g id="Home-R2a-1" transform="translate(-1039.000000, -611.000000)" fill="#FFFFFF" fill-rule="nonzero">
            <g id="Quote-Module" transform="translate(957.000000, 135.000000)">
                <g id="jp-morgan-chase-logo" transform="translate(82.000000, 476.000000)">
                    <path d="M236.253708,0 C235.123082,0 234.191392,0.385728558 233.443482,1.15437014 C232.696543,1.92399738 232.330522,2.7913233 232.330522,3.77281947 C232.330522,5.01841301 232.877528,6.40253096 233.972138,7.93981411 C232.15495,9.16766931 230.914284,10.2026616 230.271545,11.0087494 C229.630764,11.8168085 229.325519,12.8047808 229.325528,13.9932185 C229.325528,15.0328553 229.589442,15.9319954 230.1046,16.7242893 C230.618788,17.5175662 231.2611,18.1440227 232.080105,18.5825437 C232.899102,19.0210629 233.768876,19.2582743 234.667739,19.2582725 C236.500509,19.2582725 238.251873,18.3215438 239.898654,16.470891 C241.283453,18.3215429 242.888199,19.2582743 244.712208,19.2582725 C245.553606,19.2582725 246.297358,19.003184 246.938129,18.5262329 C247.577948,18.0502666 247.992521,17.4143779 248.19021,16.6398232 L247.522434,16.6398232 C247.046229,17.4902559 246.369682,17.9349693 245.49128,17.9349702 C244.845621,17.9349702 244.253374,17.7329552 243.68272,17.3437074 C243.113017,16.9554444 242.31782,16.0340593 241.317678,14.5844812 C241.737398,14.0198251 242.206373,13.143066 242.708879,11.9378765 C243.306824,10.4784428 243.896969,9.48061737 244.461792,8.95340741 C245.027594,8.42521268 245.679656,8.06229042 246.437297,7.85534801 L246.437297,7.17961915 L240.42731,7.17961915 L240.42731,7.85534801 C241.898777,8.02484333 242.625416,8.63060632 242.625407,9.71360237 C242.625407,10.1649325 242.461107,10.7958948 242.152399,11.6000121 C241.84467,12.4051142 241.432028,13.1830475 240.900318,13.9369078 C239.42203,11.814274 237.861384,9.62294299 236.19806,7.34855136 C238.882939,5.98174919 240.204727,4.57876669 240.204718,3.12524598 C240.204718,2.19105083 239.820479,1.42015682 239.008285,0.844661076 C238.195129,0.26916533 237.262611,0 236.253708,0 Z M261.796153,0.0844661076 C260.161071,0.0844661076 258.65691,0.462311162 257.288663,1.23883624 C255.920416,2.01536133 254.853354,3.21125996 254.088901,4.81456813 C253.32541,6.41689064 252.948116,8.12366822 252.948116,9.93884533 C252.948116,12.7029989 253.766962,14.9314959 255.424454,16.6116678 C257.080958,18.2918388 259.239967,19.1174948 261.851801,19.1174957 C264.323402,19.1174957 266.354991,18.2025876 267.94526,16.3864249 C268.365959,16.9471384 268.64517,17.5949939 268.807805,18.3291453 L269.419933,18.3291453 L269.419933,11.8815658 L268.807805,11.8815658 C268.700684,12.9468244 268.341617,14.0627636 267.750492,15.2038994 C267.160338,16.3460217 266.369451,17.1473226 265.357627,17.6252611 C264.342883,18.1031978 263.350407,18.3291453 262.380457,18.3291453 C260.567169,18.3291453 259.036563,17.6023143 257.817319,16.1330266 C256.600995,14.6627532 256.008749,12.5553242 256.008758,9.79806848 C256.008758,6.88609875 256.563146,4.632825 257.678199,3.06893524 C258.795202,1.50307416 260.290602,0.732039599 262.185689,0.732039599 C263.732152,0.732039599 265.126416,1.22250613 266.359291,2.1961188 C267.592176,3.16973146 268.407557,4.8810139 268.807805,7.34855136 L269.419933,7.34855136 L269.252989,0.394175169 L268.640861,0.394175169 C268.558092,1.21504518 268.337726,2.02169606 267.94526,2.78738155 C267.403809,2.10447285 266.565474,1.49082635 265.468923,0.929127184 C264.370431,0.367427118 263.145889,0.0844661076 261.796153,0.0844661076 Z M154.951937,0.140776846 C153.316856,0.140776846 151.812703,0.518621901 150.444447,1.29514698 C149.075229,2.07167207 148.009155,3.2675725 147.244685,4.87087887 C146.480224,6.47320138 146.103909,8.1789942 146.1039,9.99515607 C146.1039,12.758324 146.922763,14.986821 148.580238,16.6679786 C150.235771,18.3481504 152.365978,19.1738055 154.979761,19.1738064 C157.449421,19.1738064 159.483921,18.2880376 161.07322,16.470891 C161.495869,17.0335758 161.802904,17.678477 161.963589,18.4136115 L162.575717,18.4136115 L162.575717,11.9378765 L161.963589,11.9378765 C161.856469,13.0041208 161.498371,14.1190734 160.906276,15.2602101 C160.316122,16.4023324 159.527176,17.2036351 158.513411,17.6815719 C157.498667,18.1595095 156.505203,18.4136133 155.536241,18.4136115 C153.722953,18.4136115 152.191376,17.6576393 150.973103,16.1893373 C149.75483,14.719063 149.164551,12.6126197 149.164542,9.85437922 C149.164542,6.94240948 149.717968,4.71729111 150.833983,3.15340135 C151.950006,1.58852593 153.448318,0.788350338 155.341473,0.788350338 C156.889877,0.788350338 158.28415,1.27881687 159.515075,2.25242954 C160.746989,3.2260413 161.562371,4.93732644 161.963589,7.4048621 L162.575717,7.4048621 L162.408773,0.478641276 L161.796645,0.478641276 C161.714847,1.29951129 161.465686,2.0780068 161.07322,2.84369229 C160.531769,2.16078358 159.723199,1.54615232 158.624707,0.985437922 C157.529135,0.423738757 156.302653,0.140776846 154.951937,0.140776846 Z M22.5930998,0.197087584 C21.5695937,0.197087584 20.1370754,0.237771868 18.3082016,0.309709061 L16.0266324,0.394175169 L16.0266324,1.01359329 L16.3605206,1.01359329 C17.2866427,1.01359329 17.8905645,1.10439503 18.1690815,1.26699161 C18.4485735,1.43057476 18.6169092,1.71409888 18.6977378,2.13980806 C18.7785663,2.56551724 18.8368561,3.51914005 18.8368579,4.98350035 L18.8368579,13.9932185 C18.8368579,15.5314873 18.7785672,16.5287505 18.6977378,16.9495323 C18.6169084,17.370314 18.4421735,17.6795996 18.1412575,17.8786594 C17.8403406,18.0777175 17.2816352,18.1602131 16.4996406,18.1602131 L16.0266324,18.1602131 L16.0266324,18.7796313 L24.4016608,18.7796313 L24.4016608,18.1602131 L23.7895325,18.1602131 C22.9715073,18.1602131 22.417114,18.0692708 22.1200916,17.8505041 C21.82307,17.6327221 21.6308074,17.2862696 21.5636113,16.8369108 C21.4954429,16.3875511 21.480141,15.4457553 21.4801392,13.9932185 L21.4801392,10.1077775 L23.4834683,10.1077775 C25.5694351,10.1077775 27.0240755,9.91364515 27.8518386,9.51651479 C28.6805775,9.11839787 29.2997994,8.53952348 29.7438716,7.7708819 C30.1869688,7.00125466 30.4116479,6.10028374 30.4116479,5.09612182 C30.4116479,3.93921816 30.0883338,2.98404658 29.4378074,2.22427417 C28.7872819,1.46450175 27.9513079,0.946161858 26.9336461,0.647573492 C25.9159825,0.348986026 24.4755346,0.197087584 22.5930998,0.197087584 Z M5.37003481,0.394175169 L5.37003481,1.01359329 L5.78739503,1.01359329 C6.70962177,1.01359329 7.29545662,1.10439413 7.56813196,1.26699161 C7.84178048,1.4295882 8.03988746,1.7160693 8.12461225,2.13980806 C8.20933615,2.56453158 8.2359092,3.52111137 8.23590831,4.98350035 L8.23590831,11.2339923 C8.23590831,13.2827175 8.18429543,14.7655198 8.04114021,15.6543853 C7.89993311,16.5452212 7.45558404,17.3087948 6.76123554,17.9631255 C6.06688792,18.6174563 5.21616846,18.9485626 4.2014262,18.9485635 C3.70281986,18.9485635 3.28824115,18.8567761 2.94934554,18.6951651 C2.61239717,18.5335533 2.44851328,18.3071833 2.44851328,18.0194363 C2.44851328,17.9110377 2.48927613,17.7566057 2.58763335,17.540795 C2.69573032,17.2973921 2.75457744,17.0625754 2.75457744,16.8369108 C2.75457744,16.4585026 2.63089992,16.1407695 2.36504124,15.8796282 C2.10015662,15.6175013 1.75875552,15.485454 1.36337671,15.4854531 C0.976761809,15.4854531 0.655394886,15.6442484 0.389536204,15.935939 C0.124651585,16.2276286 0,16.5791491 0,17.005843 C0,17.713387 0.373815858,18.3225286 1.11296058,18.835942 C1.85405254,19.3483697 2.88493273,19.5961379 4.25707423,19.596137 C5.47827067,19.596137 6.56243318,19.3925723 7.48465992,18.9767188 C8.40688666,18.5598788 9.15841374,17.9745282 9.71058108,17.2029306 C10.2627484,16.4303463 10.5905153,15.6236946 10.7122456,14.8097242 C10.8320278,13.9967377 10.8791897,12.8181539 10.8791897,11.2621477 L10.8791897,4.98350035 C10.8791897,3.45607202 10.9287155,2.49048341 11.0183098,2.08349732 C11.1069299,1.67651123 11.2982176,1.38665148 11.5747901,1.23883624 C11.8503867,1.08806402 12.4356642,1.01359329 13.327703,1.01359329 L13.7728872,1.01359329 L13.7728872,0.394175169 L5.37003481,0.394175169 Z M32.8601612,0.394175169 L32.8601612,1.01359329 L33.3609935,1.01359329 C34.2871156,1.01359329 34.867106,1.10439413 35.1417304,1.26699161 C35.416353,1.43057386 35.613485,1.71409888 35.6982107,2.13980806 C35.7839086,2.56551724 35.809505,3.51815348 35.8095067,4.98350035 L35.8095067,12.9796252 C35.8095067,14.4991709 35.7784845,15.543172 35.6703867,16.1048712 C35.5632638,16.6655856 35.2430107,17.1584451 34.7521942,17.540795 C34.2623526,17.9251153 33.643129,18.1158691 32.8601612,18.1602131 L32.8601612,18.7796313 L39.3988046,18.7796313 L39.3988046,18.1602131 C38.5583805,18.1060143 37.915644,17.886542 37.4511236,17.4844843 C36.9846542,17.0824256 36.7050224,16.6108227 36.6164032,16.0767158 C36.5268098,15.542608 36.4772813,14.5383064 36.4772831,13.0640913 L36.4772831,2.30874027 L43.7115269,18.7796313 L44.3514792,18.7796313 L51.502251,2.30874027 L51.502251,14.0213739 C51.502251,15.5596427 51.4756779,16.5287505 51.3909549,16.9495323 C51.3062301,17.370314 51.1075649,17.6786149 50.8066506,17.8786594 C50.5047605,18.0777175 49.9670643,18.1602131 49.1928577,18.1602131 L48.5529054,18.1602131 L48.5529054,18.7796313 L57.289646,18.7796313 L57.289646,18.1602131 L56.4827496,18.1602131 C55.65888,18.1602131 55.1035127,18.0682852 54.8133087,17.8505041 C54.5211565,17.6337077 54.3279163,17.3124554 54.2568284,16.8650661 C54.1847638,16.4176769 54.1455332,15.440827 54.1455323,13.9932185 L54.1455323,4.98350035 C54.1455323,3.45508636 54.1892129,2.49146817 54.2846524,2.08349732 C54.377167,1.67651123 54.5635888,1.38763715 54.8411327,1.23883624 C55.1186775,1.09003444 55.7269078,1.01359329 56.6218696,1.01359329 L57.289646,1.01359329 L57.289646,0.394175169 L51.669195,0.394175169 L45.0749036,15.6262299 L38.3971401,0.394175169 L32.8601612,0.394175169 Z M236.309356,0.70388423 C236.992019,0.70388423 237.532223,0.937715247 237.950973,1.40776846 C238.366801,1.87880824 238.590916,2.47513896 238.590925,3.23786746 C238.590925,4.51696633 237.643644,5.71286586 235.780699,6.81359935 C234.636433,5.22408775 234.083426,3.96314977 234.083435,3.04077987 C234.083435,2.37265251 234.286554,1.83094321 234.695563,1.37961309 C235.103601,0.929267735 235.632542,0.70388423 236.309356,0.70388423 Z M22.87134,0.844661076 C24.5288161,0.844661076 25.7224663,1.20209371 26.4606378,1.91456511 C27.1988085,2.62605083 27.5735993,3.74156836 27.5735984,5.26505404 C27.5735984,6.26330288 27.3631118,7.11908555 26.9336461,7.79903727 C26.503209,8.47898988 25.9635621,8.9075146 25.3198533,9.12233962 C24.6751704,9.33519421 23.8347463,9.46020495 22.7878679,9.46020405 L21.4801392,9.46020405 L21.4801392,0.900971814 C21.8024802,0.864511287 22.2636626,0.844661076 22.87134,0.844661076 Z M202.781418,4.33592686 C201.71798,4.33592686 200.860315,4.65028133 200.165961,5.32136478 C199.472586,5.99244823 199.108648,6.84724524 199.108648,7.85534801 C199.108648,8.51657663 199.290052,9.13022402 199.60948,9.71360237 C199.9289,10.2979673 200.348495,10.7858994 200.917209,11.1495262 C201.485932,11.5151234 202.357104,11.9306976 203.477018,12.4165178 C204.733275,12.9594939 205.592338,13.4648832 206.064652,13.9369078 C206.537936,14.4158301 206.760261,15.0021673 206.760252,15.710696 C206.760252,16.4123278 206.491886,17.0586336 205.953356,17.6252611 C205.413846,18.1918877 204.654397,18.4699213 203.671787,18.4699222 C201.487463,18.4699222 200.110313,16.9836007 199.526008,14.0213739 L198.997352,14.0213739 L198.997352,18.5825437 L199.526008,18.5825437 C199.636049,17.9902953 199.797989,17.5291121 200.026841,17.2029306 C201.053266,18.3913692 202.331782,18.9767206 203.866555,18.9767188 C205.201689,18.9767188 206.267772,18.6073195 207.066316,17.8505041 C207.86487,17.0917164 208.262758,16.1043081 208.262749,14.8941903 C208.262749,14.1294905 208.091077,13.4513686 207.761917,12.8670037 C207.429845,12.2836245 207.002459,11.8456675 206.454188,11.515546 C205.906887,11.1854245 205.015548,10.7371901 203.810907,10.1922436 C202.55173,9.61773357 201.706298,9.09897202 201.223273,8.64369834 C200.731478,8.19630998 200.472034,7.65811987 200.472025,7.01068693 C200.472025,6.4746087 200.665831,5.97076814 201.056329,5.51845236 C201.447815,5.06810701 202.055207,4.8427226 202.892714,4.8427235 C203.772096,4.8427235 204.56382,5.15989441 205.229931,5.77185069 C205.898954,6.38577919 206.358189,7.20946384 206.621132,8.27767854 L207.066316,8.27767854 L207.066316,4.58932518 L206.621132,4.58932518 C206.581208,5.03375836 206.408975,5.44679807 206.092476,5.82816142 C205.541284,5.21718991 205.001632,4.81161114 204.478683,4.61748055 C203.953784,4.42236429 203.376434,4.33592776 202.781418,4.33592686 Z M65.8594425,4.36408223 C63.7053073,4.36408223 61.9297149,5.01348649 60.4894077,6.33495807 C59.0490978,7.65544489 58.3191354,9.41726644 58.3191345,11.6000121 C58.3191345,13.8389271 59.0417264,15.6227098 60.4615836,16.9776876 C61.8814427,18.3346359 63.6986295,19.0330305 65.9150905,19.0330296 C68.190956,19.0330296 70.0277594,18.334635 71.4242454,16.9776876 C72.8197591,15.6227107 73.5110474,13.8741226 73.5110465,11.6844782 C73.5110465,9.42486884 72.7698147,7.64263577 71.3129493,6.33495807 C69.8551099,5.02826784 68.0330509,4.36408132 65.8594425,4.36408223 Z M98.1631234,4.36408223 C95.9875704,4.36408223 94.2826483,5.12216532 93.0156807,6.64466713 C91.748722,8.16618328 91.0958237,9.94391329 91.0958237,11.9660319 C91.0958237,14.0098306 91.7747296,15.702672 93.0991527,17.0339984 C94.4225964,18.3653248 96.0823056,19.0330278 98.0796513,19.0330296 C99.0739436,19.0330296 100.139617,18.7997635 101.307237,18.3573007 C102.164217,18.0321058 102.866219,17.8786594 103.394038,17.8786594 C103.524539,17.8786594 103.676579,17.8782378 103.839222,17.9068148 L103.839222,16.4145802 C103.839222,15.1926372 103.874552,14.4231505 103.950518,14.10584 C104.025505,13.7895151 104.185896,13.5379466 104.423527,13.4019557 C104.660169,13.2659649 105.120792,13.2048673 105.786903,13.2048682 L105.786903,12.7262269 L99.7490922,12.7262269 L99.7490922,13.2048682 L100.08298,13.2048682 C100.637092,13.2048682 101.016345,13.2579426 101.223765,13.345645 C101.431194,13.4313788 101.568631,13.599183 101.668949,13.8524416 C101.769258,14.1066842 101.835893,14.6130592 101.835893,15.3728316 C101.835893,16.0202636 101.715275,16.5539498 101.502005,16.9776876 C101.290685,17.4024111 100.914772,17.7519594 100.333397,18.0475917 C99.7510421,18.3451935 99.0966213,18.4980776 98.3857155,18.4980776 C96.9970256,18.4980776 95.8167265,17.9950812 94.8798897,16.9495323 C93.9420824,15.9059528 93.4886889,14.1069662 93.4886889,11.6000121 C93.4886889,9.0861602 93.9885507,7.34953702 94.9633617,6.36311344 C95.9381816,5.37767552 97.072974,4.87087887 98.3857155,4.87087887 C99.6556035,4.87087887 100.724188,5.29433562 101.613301,6.13787049 C102.503394,6.98239101 103.056268,8.12718742 103.254918,9.57282553 L103.727926,9.57282553 L103.727926,4.8427235 L103.254918,4.8427235 C103.192592,5.41329273 103.039565,5.95387492 102.809734,6.44757955 C101.58269,5.06106862 100.034847,4.36408223 98.1631234,4.36408223 Z M280.382595,4.36408223 C278.228464,4.36408223 276.452864,5.01348649 275.01256,6.33495807 C273.572246,7.65544489 272.842305,9.41726644 272.842287,11.6000121 C272.842287,13.8389271 273.53705,15.6227098 274.956912,16.9776876 C276.376774,18.3346359 278.194924,19.0330305 280.410419,19.0330296 C282.688231,19.0330296 284.523084,18.334635 285.919574,16.9776876 C287.315084,15.6227107 288.03419,13.8741226 288.034199,11.6844782 C288.034199,9.42486884 287.292967,7.64263577 285.836102,6.33495807 C284.378266,5.02826784 282.555236,4.36408132 280.382595,4.36408223 Z M189.843251,4.39223759 L185.780945,14.1903061 C185.488789,14.894894 185.295142,15.2975157 185.252289,15.400987 C184.820879,16.5096039 184.470991,17.2250323 184.167152,17.5689504 C183.863314,17.9138532 183.39823,18.1471202 182.775952,18.2446792 L182.775952,18.7233205 L186.977378,18.7233205 L186.977378,18.2446792 C186.524545,18.2446792 186.150715,18.1265681 185.864417,17.9068148 C185.581031,17.6880471 185.447057,17.3742567 185.447057,16.9495323 C185.447057,16.552401 185.718343,15.7173137 186.253953,14.415549 L186.615666,13.5145772 L191.902228,13.5145772 L192.987365,16.1330266 C193.303864,16.8918142 193.460373,17.3317416 193.460373,17.4844843 C193.460373,17.7830717 193.334333,18.0033864 193.098661,18.1039024 C192.86104,18.2044166 192.406266,18.2446783 191.735284,18.2446792 L191.735284,18.7233205 L197.216615,18.7233205 L197.216615,18.2446792 C196.726779,18.1963935 196.374932,18.0708205 196.131479,17.8786594 C195.887046,17.6884697 195.691298,17.4233867 195.547174,17.0903091 L194.907222,15.6262299 L190.260612,4.39223759 L189.843251,4.39223759 Z M80.5505222,4.44854833 C79.7685293,4.44854833 78.7088484,4.47388817 77.3785845,4.53301444 L75.4030795,4.61748055 L75.4030795,5.09612182 L75.6256716,5.09612182 C76.3453386,5.09612182 76.8275266,5.16805812 77.0446963,5.29320941 C77.2599162,5.4183598 77.3997308,5.64275854 77.4620565,5.96893827 C77.5253528,6.295118 77.5455286,7.01153114 77.5455286,8.1369017 L77.5455286,15.0912779 C77.5455286,16.2728177 77.5243823,17.019499 77.4620565,17.3437074 C77.4007102,17.6669311 77.2476736,17.8958347 77.0168723,18.0475917 C76.7870504,18.2003343 76.3637069,18.2728337 75.7647917,18.2728346 L75.3196074,18.2728346 L75.3196074,18.7514759 L82.0251949,18.7514759 L82.0251949,18.2728346 L81.3574186,18.2728346 C80.7234495,18.2728346 80.2727005,18.1859746 80.0496899,18.0194363 C79.8247383,17.8538827 79.6829738,17.6021728 79.6323297,17.2592413 C79.580715,16.919265 79.5766817,16.195954 79.5766817,15.0912779 L79.5766817,11.9941873 L80.1331619,11.9941873 C80.5080961,11.9941873 80.7618422,12.0641522 80.9400584,12.1912749 C81.1163246,12.3193822 81.4425645,12.6476738 81.9138989,13.2330235 C82.3842716,13.815418 82.839054,14.4275148 83.2772756,15.0631225 C84.6416317,17.0517358 85.6757056,18.2774818 86.3379172,18.7514759 L90.0663351,18.7514759 L90.0663351,18.2728346 C89.2492796,18.2452423 88.5515958,18.0133827 87.95171,17.5689504 C87.3537742,17.1225468 86.5290704,16.1842693 85.4753727,14.7534135 C84.1821125,12.9855374 83.2196777,11.9672996 82.6373233,11.6844782 C83.9305834,11.5248368 84.9205663,11.1281281 85.5866688,10.4737973 C86.2547301,9.81946656 86.5883333,9.00690261 86.5883333,8.08059096 C86.5883333,7.28731321 86.3234487,6.62397271 85.8092609,6.05340438 C85.2950731,5.48086562 84.6375894,5.06585458 83.8059319,4.81456813 C82.9723155,4.56426735 81.8798156,4.44854833 80.5505222,4.44854833 Z M113.855868,4.44854833 L109.765737,14.2184614 C109.47261,14.9220646 109.310679,15.325672 109.264905,15.4291423 C108.836415,16.5377602 108.456762,17.281344 108.151945,17.6252611 C107.847136,17.9701639 107.409894,18.1752765 106.788568,18.2728346 L106.788568,18.7514759 L110.989994,18.7514759 L110.989994,18.2728346 C110.535212,18.2728346 110.16139,18.182878 109.877034,17.9631255 C109.591697,17.7433731 109.459682,17.4024102 109.459673,16.9776876 C109.459673,16.5805555 109.72998,15.7454672 110.26657,14.4437044 L110.628282,13.5427326 L115.914845,13.5427326 L116.972157,16.1611819 C117.287686,16.9199696 117.472989,17.3880506 117.472989,17.540795 C117.472989,17.8393825 117.348881,18.0315426 117.111277,18.1320578 C116.874635,18.232572 116.419853,18.2728346 115.747901,18.2728346 L115.747901,18.7514759 L121.229231,18.7514759 L121.229231,18.2728346 C120.741336,18.2235632 120.387557,18.1271303 120.144095,17.9349702 C119.900633,17.7447804 119.702944,17.4796983 119.559791,17.1466198 L118.919838,15.6543853 L114.273228,4.44854833 L113.855868,4.44854833 Z M165.831127,4.58932518 L165.831127,5.06796646 L166.109367,5.06796646 C166.822214,5.06796646 167.261415,5.14088841 167.472744,5.26505404 C167.683093,5.39020443 167.826799,5.61361661 167.890104,5.9407829 C167.956321,6.26696263 168.0014,6.98436144 168.0014,8.10874633 L168.0014,15.0349672 C168.0014,16.2174927 167.956321,16.9913437 167.890104,17.3155521 C167.826799,17.6387757 167.675721,17.8676802 167.44492,18.0194363 C167.213148,18.1721789 166.794657,18.2446792 166.192839,18.2446792 L165.831127,18.2446792 L165.831127,18.7233205 L172.175002,18.7233205 L172.175002,18.2446792 L171.81329,18.2446792 C171.180291,18.2446792 170.731492,18.1578211 170.505561,17.9912809 C170.27963,17.823756 170.142736,17.5750049 170.088201,17.2310859 C170.032695,16.8861831 170.004729,16.1504838 170.004729,15.0349672 L170.004729,11.6281675 L177.294621,11.6281675 L177.294621,15.0349672 C177.294621,16.2194631 177.273475,16.9631874 177.211149,17.2873967 C177.149802,17.611606 176.992875,17.8657089 176.765965,18.0194363 C176.537113,18.1721789 176.127962,18.2446792 175.541708,18.2446792 L175.0687,18.2446792 L175.0687,18.7233205 L181.384751,18.7233205 L181.384751,18.2446792 L181.078687,18.2446792 C180.455429,18.2446792 180.025693,18.1578211 179.798782,17.9912809 C179.572842,17.8247417 179.433028,17.575004 179.381422,17.2310859 C179.328837,16.8871688 179.29795,16.1475268 179.29795,15.0349672 L179.29795,8.10874633 C179.29795,6.93607565 179.338159,6.19685621 179.409246,5.88447216 C179.482283,5.57208812 179.615277,5.35022471 179.826606,5.23689867 C180.039876,5.12160311 180.50439,5.06796646 181.189983,5.06796646 L181.384751,5.06796646 L181.384751,4.58932518 L175.0687,4.58932518 L175.0687,5.06796646 L175.430412,5.06796646 C176.132547,5.06796646 176.585398,5.14088841 176.793789,5.26505404 C177.002197,5.39020443 177.149802,5.61361661 177.211149,5.9407829 C177.273475,6.26696263 177.294621,6.98436144 177.294621,8.10874633 L177.294621,10.9242832 L170.004729,10.9242832 L170.004729,8.10874633 C170.004729,6.93607565 170.042988,6.19685621 170.116025,5.88447216 C170.189062,5.57208812 170.34501,5.35022471 170.561209,5.23689867 C170.776429,5.12160311 171.208258,5.06796646 171.896762,5.06796646 L172.175002,5.06796646 L172.175002,4.58932518 L165.831127,4.58932518 Z M210.90603,4.58932518 L210.90603,5.06796646 C211.584803,5.06796646 212.029284,5.12906496 212.241583,5.26505404 C212.452912,5.3990736 212.600517,5.62896286 212.658943,5.96893827 C212.719319,6.30891458 212.742415,7.03264722 212.742415,8.10874633 L212.742415,15.0349672 C212.742415,16.2165079 212.713487,16.9705078 212.658943,17.2592413 C212.603438,17.5469892 212.471004,17.7749062 212.269407,17.9631255 C212.067828,18.1503592 211.649212,18.2446792 210.961678,18.2446792 L210.655614,18.2446792 L210.655614,18.7233205 L222.174756,18.7233205 L222.48082,14.3310829 L222.007812,14.3310829 C221.760459,15.3894437 221.405843,16.2155231 220.978324,16.8087554 C220.550804,17.4039599 220.113126,17.7906741 219.642771,17.9631255 C219.168516,18.135577 218.567509,18.2165239 217.83421,18.2165239 L216.804721,18.2165239 C215.871784,18.2165239 215.292911,18.0606837 215.079633,17.766038 C214.867333,17.4713923 214.77356,16.4829973 214.773568,14.8097242 L214.773568,11.4592353 L216.276065,11.4592353 C216.87011,11.4592353 217.305687,11.5192067 217.55597,11.6000121 C217.805273,11.6798328 217.982937,11.8397553 218.11245,12.1068088 C218.241972,12.3758335 218.307209,12.8991008 218.307218,13.6835094 L218.780227,13.6835094 L218.780227,8.8689413 L218.307218,8.8689413 C218.307218,9.56170393 218.253787,10.0382333 218.168098,10.2767098 C218.0824,10.5161709 217.907238,10.6934101 217.639442,10.8116618 C217.370666,10.9299143 216.895281,10.980594 216.220417,10.980594 L214.773568,10.980594 L214.773568,5.06796646 L216.693425,5.06796646 C217.661425,5.06796646 218.342984,5.12948661 218.780227,5.23689867 C219.216507,5.34529729 219.603532,5.58518104 219.921011,5.99709364 C220.236531,6.4099928 220.509767,7.12429317 220.727908,8.10874633 L221.200916,8.10874633 L220.867028,4.58932518 L210.90603,4.58932518 Z M123.037792,4.61748055 L123.037792,5.09612182 C123.791543,5.09612182 124.26651,5.16059627 124.484641,5.26505404 C124.702781,5.36951001 124.85734,5.6013697 124.957649,5.96893827 C125.057949,6.33650684 125.124593,7.05193432 125.124593,8.1369017 L125.124593,15.6543853 C125.124593,16.5087597 125.077573,17.0296341 125.013297,17.2592413 C124.948051,17.4878629 124.749802,17.7077577 124.401169,17.9068148 C124.053516,18.1058737 123.559913,18.2235614 122.898672,18.2728346 L122.898672,18.7514759 L128.073939,18.7514759 L128.073939,18.2728346 C127.33577,18.2728346 126.801398,18.1789371 126.432322,17.9631255 C126.063238,17.7482996 125.816579,17.5174247 125.736722,17.2592413 C125.657844,17.0020418 125.625426,16.4673709 125.625426,15.6543853 L125.625426,5.82816142 L135.558599,19.0893403 L135.975959,19.0893403 L135.975959,7.37670673 C135.975959,6.7716474 136.023549,6.36395675 136.115079,6.10971512 C136.206618,5.85645734 136.42003,5.61432117 136.755032,5.43398626 C137.091974,5.25365134 137.561928,5.14539507 138.146232,5.09612182 L138.146232,4.61748055 L133.110086,4.61748055 L133.110086,5.09612182 C133.659336,5.09612182 134.11078,5.17551997 134.501286,5.32136478 C134.892773,5.46720959 135.153766,5.66331241 135.280359,5.91262753 C135.40696,6.16391398 135.475127,6.61116179 135.475127,7.23592988 L135.475127,15.6825406 L127.211395,4.61748055 L123.037792,4.61748055 Z M65.8872665,4.87087887 C67.5885656,4.87087887 68.8876711,5.47298122 69.7826285,6.64466713 C70.6775877,7.81635305 71.1181821,9.48596644 71.1181812,11.6844782 C71.1181812,13.9450724 70.6624248,15.6394625 69.7548045,16.7806 C68.845237,17.9217367 67.6191703,18.4980776 66.0542106,18.4980776 C64.2691607,18.4980776 62.9395886,17.9217367 62.0475525,16.7806 C61.1555155,15.6394625 60.7120016,13.9588698 60.7119998,11.6844782 C60.7119998,9.4445776 61.1555137,7.73244824 62.0475525,6.58835639 C62.9395904,5.44426274 64.2112885,4.87087977 65.8872665,4.87087887 Z M280.410419,4.87087887 C282.111717,4.87087887 283.410809,5.47298122 284.305781,6.64466713 C285.202685,7.81635305 285.641325,9.48596644 285.641334,11.6844782 C285.641334,13.9450724 285.185563,15.6394625 284.277957,16.7806 C283.368383,17.9217367 282.141366,18.4980776 280.577363,18.4980776 C278.792317,18.4980776 277.434923,17.9217367 276.542881,16.7806 C275.650847,15.6394625 275.207328,13.9588698 275.207328,11.6844782 C275.207328,9.4445776 275.650847,7.73244824 276.542881,6.58835639 C277.434923,5.44426274 278.734451,4.87087977 280.410419,4.87087887 Z M80.4392261,4.95534498 C82.064567,4.95534498 83.126189,5.2581562 83.6111638,5.85631679 C84.0951681,6.45447829 84.3345881,7.25521609 84.3345881,8.24952318 C84.3345881,8.82107717 84.254179,9.29521269 84.111996,9.685447 C83.9688426,10.0746948 83.7750539,10.4032693 83.5276917,10.6427296 C83.2803385,10.8831764 82.9540985,11.0535168 82.5538512,11.1776816 C82.1545744,11.302832 81.6772567,11.3743466 81.1348265,11.4029245 C80.5923962,11.4305168 80.0850286,11.4464243 79.5766817,11.4592353 L79.5766817,4.98350035 C79.9019422,4.95492332 80.187973,4.95534498 80.4392261,4.95534498 Z M189.258947,7.01068693 L191.70746,12.9796252 L186.838258,12.9796252 L189.258947,7.01068693 Z M113.271563,7.0388423 L115.720077,13.0359359 L110.82305,13.0359359 L113.271563,7.0388423 Z M234.389499,8.53107687 C235.810331,10.4093211 237.516072,12.8503907 239.481293,15.8796282 C238.37404,17.1833624 237.167181,17.8505041 235.864171,17.8505041 C234.690693,17.8505041 233.621289,17.3376547 232.692234,16.3019588 C231.763188,15.2672494 231.301033,14.1434267 231.301033,12.9796252 C231.301033,12.2247802 231.56939,11.4517743 232.107929,10.6427296 C232.643548,9.8336857 233.409817,9.1361362 234.389499,8.53107687 Z M290.733128,16.0485604 C290.313408,16.0485604 289.946951,16.1955306 289.647992,16.4990464 C289.347074,16.8025612 289.202798,17.1733679 289.202807,17.5971057 C289.202807,18.012961 289.352906,18.3817963 289.647992,18.6951651 C289.942089,19.008534 290.305627,19.1456502 290.733128,19.1456511 C291.152857,19.1456511 291.513447,18.9976944 291.818265,18.6951651 C292.123073,18.3906646 292.26344,18.0306984 292.263449,17.5971057 C292.263449,17.1733679 292.117224,16.8025603 291.818265,16.4990464 C291.516368,16.1955315 291.162606,16.0485604 290.733128,16.0485604 Z" id="path29"></path>
                </g>
            </g>
        </g>
    </g>
</svg>