<?xml version="1.0" encoding="UTF-8"?>
<svg width="40px" height="36px" viewBox="0 0 40 36" version="1.1" xmlns="http://www.w3.org/2000/svg" xmlns:xlink="http://www.w3.org/1999/xlink">
    <!-- Generator: Sketch 51.3 (57544) - http://www.bohemiancoding.com/sketch -->
    <title>left-quote</title>
    <desc>Created with Sketch.</desc>
    <defs></defs>
    <g id="Page-1" stroke="none" stroke-width="1" fill="none" fill-rule="evenodd" opacity="0.197679">
        <g id="Home-R2a-1" transform="translate(-1165.000000, -255.000000)" fill="#FFFFFF">
            <g id="Quote-Module" transform="translate(957.000000, 135.000000)">
                <path d="M224.091954,156 L208.009848,156 L208.009848,138.841121 C207.934345,136.373819 208.29298,134.056086 209.085764,131.88785 C209.878548,129.719615 210.992204,127.813092 212.426765,126.168224 C213.861326,124.523356 215.578998,123.158884 217.579834,122.074766 C219.580669,120.990649 221.751354,120.299067 224.091954,120 L224.091954,127.401869 C221.222832,128.373837 219.259777,129.813075 218.202732,131.719626 C217.145687,133.626178 216.617173,135.962603 216.617173,138.728972 L224.091954,138.728972 L224.091954,156 Z M248,156 L231.917894,156 L231.917894,138.841121 C231.842391,136.373819 232.201026,134.056086 232.99381,131.88785 C233.786594,129.719615 234.900249,127.813092 236.334811,126.168224 C237.769372,124.523356 239.487044,123.158884 241.48788,122.074766 C243.488715,120.990649 245.6594,120.299067 248,120 L248,127.401869 C245.130878,128.373837 243.167823,129.813075 242.110778,131.719626 C241.053733,133.626178 240.525218,135.962603 240.525218,138.728972 L248,138.728972 L248,156 Z" id="left-quote"></path>
            </g>
        </g>
    </g>
</svg>