<?xml version="1.0" encoding="UTF-8"?>
<svg width="167px" height="24px" viewBox="0 0 167 24" version="1.1" xmlns="http://www.w3.org/2000/svg" xmlns:xlink="http://www.w3.org/1999/xlink">
    <!-- Generator: Sketch 51.3 (57544) - http://www.bohemiancoding.com/sketch -->
    <title>natixis-logo</title>
    <desc>Created with Sketch.</desc>
    <defs></defs>
    <g id="Page-1" stroke="none" stroke-width="1" fill="none" fill-rule="evenodd">
        <g id="Home-R2a-3" transform="translate(-1101.000000, -607.000000)" fill="#FFFFFF">
            <g id="Quote-Module" transform="translate(957.000000, 135.000000)">
                <g id="Logo_Natixis" transform="translate(144.000000, 472.000000)">
                    <g id="natixis-logo" transform="translate(0.453940, 0.166667)">
                        <path d="M144.405134,1.9551875 C147.00803,0.599909722 149.990514,0.267069444 152.87777,0.290986111 C157.019521,0.219236111 161.302791,1.07558565 164.781915,3.42938426 C164.639735,3.73830787 164.379842,3.97614583 164.166902,4.2139838 C163.504275,4.92683333 162.864793,5.66426389 162.155213,6.32994444 C159.24415,4.71291204 155.8834,3.97614583 152.593409,4.07114815 C150.771514,4.07114815 148.878199,4.16615046 147.15021,4.80791435 C146.369209,5.11750231 145.517449,5.7592662 145.588208,6.68670139 C145.517449,7.56630324 146.345402,8.13698148 147.07945,8.35090278 C148.948959,8.89766435 150.936841,8.87374769 152.853963,9.08766898 C154.699664,9.20658796 156.546027,9.37334028 158.368583,9.65834722 C160.119717,9.94401852 161.918466,10.3479444 163.480468,11.2753796 C164.639735,11.9649769 165.562916,13.0824167 165.82347,14.4137778 C166.154784,16.0301458 166.012603,17.7900139 165.137036,19.2163773 C164.426795,20.4288194 163.267528,21.3084213 162.013033,21.9269329 C159.504043,23.1154583 156.688207,23.377213 153.94247,23.4482986 C149.138092,23.4722153 144.073821,22.5686968 140.14501,19.5963866 C140.854589,18.5267801 141.659397,17.5282593 142.440398,16.5297384 C146.535197,19.287463 151.694034,20.1198958 156.52222,19.5013843 C157.823667,19.287463 159.149583,19.002456 160.238091,18.2178565 C160.924525,17.7182639 161.444972,16.8864954 161.350405,16.0068935 C161.278984,15.150544 160.616357,14.4848634 159.88297,14.1520231 C158.723042,13.6052616 157.421594,13.4385093 156.167099,13.3435069 C153.871711,13.177419 151.552515,13.1535023 149.256465,12.9634977 C147.457717,12.7967454 145.635822,12.5349907 143.978593,11.7743079 C142.937699,11.2986319 141.966904,10.4907801 141.470264,9.42050926 C140.972963,8.35090278 140.92601,7.11454398 141.162757,5.94927083 C141.541024,4.16615046 142.866278,2.78695602 144.405134,1.9551875" id="Fill-56"></path>
                        <path d="M0.43976761,22.9254537 C0.415960641,15.5783866 0.415960641,8.20806713 0.43976761,0.861664352 C2.56982997,0.861664352 4.69989233,0.861664352 6.8299547,0.861664352 C11.7996593,6.94779167 16.7224113,13.0824167 21.715923,19.168544 C21.7635369,13.0585 21.715923,6.97170833 21.7397299,0.861664352 C23.183358,0.861664352 24.6031792,0.861664352 26.0474686,0.861664352 C26.0474686,8.20806713 26.0474686,15.5783866 26.0474686,22.9254537 C23.9405519,22.9254537 21.8111508,22.9254537 19.7042341,22.9254537 C19.4443414,22.7826181 19.3021609,22.4976111 19.0892208,22.2836898 C15.1127958,17.3854236 11.1370321,12.4878218 7.16126834,7.59021991 C6.33265358,6.59103472 5.57545972,5.56926157 4.7236993,4.61790972 C4.67608537,10.7286181 4.7236993,16.838662 4.69989233,22.9254537 C3.30321686,22.9254537 1.85958875,22.901537 0.43976761,22.9254537" id="Fill-61"></path>
                        <path d="M57.5473942,0.861664352 C65.9730771,0.837747685 74.39876,0.861664352 82.8237816,0.861664352 C82.8475885,2.1691088 82.8237816,3.47655324 82.8237816,4.78466204 C79.3208507,4.78466204 75.8423881,4.78466204 72.3394572,4.78466204 C72.3156503,10.8236204 72.3632642,16.8864954 72.3156503,22.9254537 C70.8958291,22.9254537 69.476008,22.9254537 68.0793325,22.9254537 C68.0323799,17.5760926 68.0793325,12.2260671 68.0555255,6.87670602 C68.0323799,6.1871088 68.1269464,5.47359491 67.9847659,4.78466204 C64.505642,4.80791435 61.0265181,4.80791435 57.5242486,4.78466204 C57.5473942,3.45330093 57.5242486,2.14519213 57.5473942,0.861664352" id="Fill-62"></path>
                        <path d="M87.5335935,0.837747685 C88.9772216,0.837747685 90.3970427,0.837747685 91.8406708,0.837747685 C91.8406708,8.18415046 91.8406708,15.5551343 91.8406708,22.901537 C90.7759703,22.901537 89.7344154,22.901537 88.6697149,22.901537 C88.2669803,22.901537 87.8887141,22.9493704 87.5097865,22.8065347 C87.5574004,15.5073009 87.5097865,8.18415046 87.5335935,0.837747685" id="Fill-63"></path>
                        <path d="M97.0001699,0.837747685 C98.7989186,0.837747685 100.597667,0.837747685 102.396416,0.837747685 C104.739419,3.16762963 107.082421,5.49751157 109.425423,7.82739352 C109.898918,8.2319838 110.253377,8.77874537 110.798292,9.08766898 C113.567175,6.35386111 116.31225,3.57155556 119.081133,0.837747685 C120.879882,0.861664352 122.67863,0.837747685 124.477379,0.861664352 C121.045869,4.30898611 117.542938,7.66130556 114.111428,11.0847106 C113.922295,11.2986319 113.637934,11.4653843 113.519561,11.7271389 C115.555057,13.8191829 117.685119,15.7923079 119.74376,17.8371829 C121.069676,19.168544 122.418076,20.4766528 123.767138,21.7840972 C124.098452,22.1408542 124.548139,22.4497778 124.784886,22.8776204 C123.009944,22.901537 121.211195,22.8776204 119.436254,22.8776204 C116.643564,20.0720625 113.803922,17.314338 110.987425,14.5326968 C110.869052,14.3659444 110.656111,14.3420278 110.513931,14.4609468 C108.076362,16.838662 105.6626,19.2642106 103.248176,21.6651782 C102.798489,22.0458519 102.443369,22.5208634 101.970536,22.8776204 C100.195594,22.901537 98.3968454,22.901537 96.6219036,22.8776204 C98.728159,20.7377431 100.905174,18.6696157 103.035236,16.5536551 C104.691805,14.912706 106.348373,13.296338 108.005602,11.6793056 C104.336684,8.08914815 100.64462,4.49899074 97.0001699,0.837747685" id="Fill-64"></path>
                        <path d="M130.512446,2.31194444 C130.512446,1.81235185 130.464832,1.31275926 130.607012,0.837747685 C132.026833,0.861664352 133.423509,0.837747685 134.84333,0.861664352 C134.84333,8.20806713 134.84333,15.5783866 134.84333,22.9254537 C133.447316,22.9254537 132.026833,22.901537 130.630819,22.9493704 C130.56006,22.7826181 130.512446,22.6165301 130.536253,22.4258611 C130.512446,15.7212222 130.512446,9.01658333 130.512446,2.31194444" id="Fill-65"></path>
                        <path d="M39.3714352,14.2231088 C42.8267521,14.1998565 46.2820691,14.2709421 49.737386,14.1998565 C48.0100582,10.9897083 46.2820691,7.78022454 44.6016939,4.57007639 C42.8036065,7.75630787 41.1232313,10.9897083 39.3714352,14.2231088 Z M32.7213554,17.7182639 C35.7739378,12.1071481 38.8033745,6.44886343 41.8804251,0.837747685 C43.6553669,0.861664352 45.4303086,0.813831019 47.2290574,0.861664352 C51.1578684,8.2319838 55.2043918,15.5312176 59.1332028,22.901537 C57.5712012,22.901537 55.9853926,22.9726227 54.4471979,22.8537037 C53.5716305,21.332338 52.7668227,19.7631389 51.9388693,18.1939398 C49.9033735,18.1467708 47.8678777,18.1939398 45.8561889,18.1700231 C44.5071273,18.1939398 43.1349201,18.1939398 41.7858586,18.1700231 C41.2177979,18.1939398 40.6497371,18.1939398 40.0816764,18.1700231 C39.1115425,18.2178565 38.1407472,18.1228542 37.1706132,18.2178565 C36.3419985,19.7870556 35.514045,21.3562546 34.6616233,22.901537 C33.0996217,22.901537 31.53762,22.901537 29.9756184,22.901537 C30.8280401,21.1423333 31.821981,19.4542153 32.7213554,17.7182639 Z" id="Fill-91"></path>
                    </g>
                </g>
            </g>
        </g>
    </g>
</svg>