<?xml version="1.0" encoding="UTF-8"?>
<svg width="82px" height="96px" viewBox="0 0 82 96" version="1.1" xmlns="http://www.w3.org/2000/svg" xmlns:xlink="http://www.w3.org/1999/xlink">
    <!-- Generator: Sketch 51.3 (57544) - http://www.bohemiancoding.com/sketch -->
    <title>security-seal</title>
    <desc>Created with Sketch.</desc>
    <defs></defs>
    <g id="Page-1" stroke="none" stroke-width="1" fill="none" fill-rule="evenodd">
        <g id="Home-R2a-4" transform="translate(-1144.000000, -265.000000)" fill="#49C0B8">
            <g id="Quote-Module" transform="translate(957.000000, 173.000000)">
                <path d="M187,109.454719 L228.00032,92 L269,109.454719 L269,135.635209 C269,159.853782 251.505293,182.500916 228.00032,188 C204.492787,182.500916 187,159.853782 187,135.635209 L187,109.454719 Z M224.106281,143.376721 L219.539246,155.188227 L238.53476,155.188227 L233.137995,143.403388 C236.643077,141.798933 239.063817,138.374148 239.063817,134.407773 C239.063817,128.904244 234.402102,124.442627 228.650926,124.442627 C222.89975,124.442627 218.238034,128.904244 218.238034,134.407773 C218.238034,138.352561 220.632545,141.761472 224.106281,143.376721 Z" id="security-seal"></path>
            </g>
        </g>
    </g>
</svg>