<?xml version="1.0" standalone="no"?>
<!DOCTYPE svg PUBLIC "-//W3C//DTD SVG 20010904//EN"
 "http://www.w3.org/TR/2001/REC-SVG-20010904/DTD/svg10.dtd">
<svg version="1.0" xmlns="http://www.w3.org/2000/svg"
 width="16.000000pt" height="16.000000pt" viewBox="0 0 16.000000 16.000000"
 preserveAspectRatio="xMidYMid meet">
<metadata>
Created by potrace 1.11, written by Peter Selinger 2001-2013
</metadata>
<g transform="translate(0.000000,16.000000) scale(0.006154,-0.006154)"
fill="#000000" stroke="none">
<path d="M1291 1685 c-54 -17 -88 -48 -115 -105 -20 -42 -21 -64 -24 -367 l-3
-323 70 0 71 0 0 127 c0 124 0 126 19 109 31 -28 91 -45 161 -45 125 -1 201
31 240 101 39 69 49 266 19 381 -14 53 -61 102 -116 121 -59 20 -258 21 -322
1z m268 -127 c31 -19 41 -60 41 -163 0 -158 -23 -185 -154 -185 -132 0 -151
24 -151 185 1 115 17 161 63 171 15 3 32 8 37 10 21 8 144 -5 164 -18z"/>
<path d="M2010 1685 c-25 -8 -59 -29 -77 -47 -57 -59 -63 -105 -63 -445 l0
-303 70 0 70 0 0 125 0 124 36 -24 c44 -30 105 -40 196 -31 113 10 178 55 203
140 20 66 20 276 1 341 -31 102 -100 135 -280 134 -65 0 -130 -6 -156 -14z
m279 -139 c23 -23 26 -35 29 -123 7 -180 -16 -213 -153 -213 -136 0 -161 34
-153 206 6 142 34 167 177 159 63 -3 78 -8 100 -29z"/>
<path d="M224 1391 l111 -301 95 0 95 0 111 300 111 300 -72 0 -73 0 -26 -72
c-132 -369 -145 -402 -151 -383 -4 11 -41 117 -83 235 l-77 215 -76 3 -76 3
111 -300z"/>
<path d="M850 1390 l0 -300 75 0 75 0 0 300 0 300 -75 0 -75 0 0 -300z"/>
</g>
</svg>
