<?xml version="1.0" encoding="UTF-8"?>
<svg width="34px" height="44px" viewBox="0 0 34 44" version="1.1" xmlns="http://www.w3.org/2000/svg" xmlns:xlink="http://www.w3.org/1999/xlink">
    <!-- Generator: Sketch 52.4 (67378) - http://www.bohemiancoding.com/sketch -->
    <title>sym-icon-lock_50x50</title>
    <desc>Created with Sketch.</desc>
    <g id="Page-1" stroke="none" stroke-width="1" fill="none" fill-rule="evenodd">
        <g id="Meetings" transform="translate(-895.000000, -2981.000000)">
            <g id="Module-4" transform="translate(0.000000, 2835.000000)">
                <g id="sym-icon-lock_50x50" transform="translate(887.000000, 144.000000)">
                    <polygon id="Shape" points="0 0 50 0 50 50 0 50"></polygon>
                    <path d="M37.5,16.6666667 L35.4166667,16.6666667 L35.4166667,12.5 C35.4166667,6.75 30.75,2.08333333 25,2.08333333 C19.25,2.08333333 14.5833333,6.75 14.5833333,12.5 L14.5833333,16.6666667 L12.5,16.6666667 C10.2083333,16.6666667 8.33333333,18.5416667 8.33333333,20.8333333 L8.33333333,41.6666667 C8.33333333,43.9583333 10.2083333,45.8333333 12.5,45.8333333 L37.5,45.8333333 C39.7916667,45.8333333 41.6666667,43.9583333 41.6666667,41.6666667 L41.6666667,20.8333333 C41.6666667,18.5416667 39.7916667,16.6666667 37.5,16.6666667 Z M25,35.4166667 C22.7083333,35.4166667 20.8333333,33.5416667 20.8333333,31.25 C20.8333333,28.9583333 22.7083333,27.0833333 25,27.0833333 C27.2916667,27.0833333 29.1666667,28.9583333 29.1666667,31.25 C29.1666667,33.5416667 27.2916667,35.4166667 25,35.4166667 Z M31.4583333,16.6666667 L18.5416667,16.6666667 L18.5416667,12.5 C18.5416667,8.9375 21.4375,6.04166667 25,6.04166667 C28.5625,6.04166667 31.4583333,8.9375 31.4583333,12.5 L31.4583333,16.6666667 Z" id="Shape" fill="#29B6F6" fill-rule="nonzero"></path>
                </g>
            </g>
        </g>
    </g>
</svg>