<svg id="Layer_1" data-name="Layer 1" xmlns="http://www.w3.org/2000/svg" viewBox="0 0 48 36"><defs><style>.cls-1{fill:#333;}</style></defs><title>sym_web_ga</title><path class="cls-1" d="M36.73,17A9.61,9.61,0,0,0,25.21,23.2l-5.09-8.67,2.52-1.44a1.57,1.57,0,0,0,.73-1,1.56,1.56,0,0,0,1.17-.19L29.8,8.7a1.56,1.56,0,0,0,.7-1v0a1.57,1.57,0,0,0,1.07-.19l1.49-.9a1.57,1.57,0,0,0,.56-2.15,3.55,3.55,0,0,0-1.16-1.35c-.5-.32-1.09-.69-1.73-1A18.34,18.34,0,0,0,19.89.27,18.67,18.67,0,0,0,7.58,7.5,18.3,18.3,0,0,0,4.5,13.79,20.72,20.72,0,0,0,4,20.2a3.6,3.6,0,0,0,.46,1.34,1.49,1.49,0,0,0,.92.74,1.59,1.59,0,0,0,1.24-.16l1.68-1A1.56,1.56,0,0,0,9,20.21a1.6,1.6,0,0,0,.36,0,1.54,1.54,0,0,0,.79-.21l5.28-3a1.54,1.54,0,0,0,.63-.77,1.57,1.57,0,0,0,.49.09,1.54,1.54,0,0,0,.79-.21L19.25,15l5.6,9.54a9.63,9.63,0,0,0,3.75,9.52h0l.17.12,0,0q.32.22.64.41l.14.08.61.32.32.14.48.2c.28.1.57.2.86.27A9.59,9.59,0,0,0,34.3,36c.21,0,.42,0,.63,0l.35,0,.16,0h0A9.62,9.62,0,0,0,36.73,17ZM26.64,1.63A17.16,17.16,0,0,1,30.28,3c.6.3,1.17.66,1.64,1a2.64,2.64,0,0,1,.83,1,.57.57,0,0,1-.21.78l-1.49.9a.58.58,0,0,1-.79-.22l-.43-.66h0l-.13-.18-.08-.09a19.11,19.11,0,0,0-5.37-3.25,15.07,15.07,0,0,0-3.94-1A17.28,17.28,0,0,1,26.64,1.63Zm-8.15.51a13.26,13.26,0,0,1,5.39,1,18.13,18.13,0,0,1,5,3l0,.05h0l.5.8a.57.57,0,0,1-.18.78L24,11.07a.57.57,0,0,1-.78-.18l-.46-.74,0,0h0L22.69,10a42.39,42.39,0,0,0-3.74-4.45A15,15,0,0,0,15.71,3c-.17-.09-.32-.15-.47-.22A10.48,10.48,0,0,1,18.49,2.14ZM8.07,19.92a.57.57,0,0,1-.26.35l-1.68,1a.6.6,0,0,1-.46.06A.53.53,0,0,1,5.34,21,2.56,2.56,0,0,1,5,20.08a19.83,19.83,0,0,1,.46-6,17.3,17.3,0,0,1,2.7-5.67,15.12,15.12,0,0,0-1,3.91,19,19,0,0,0,.31,6.24l.54,1A.57.57,0,0,1,8.07,19.92Zm7.13-4.12a.57.57,0,0,1-.26.34l-5.28,3a.57.57,0,0,1-.78-.2l-.47-.8a18,18,0,0,1-.26-5.76A13.35,13.35,0,0,1,9.87,7.19,10.47,10.47,0,0,1,12,4.62c0,.17,0,.34,0,.53a14.91,14.91,0,0,0,.71,4.11,41,41,0,0,0,2,5.3h0l.1.17h0l.46.81A.56.56,0,0,1,15.21,15.81Zm1.65-.55a.56.56,0,0,1-.74-.15,1.58,1.58,0,0,0-.11-.24l-.38-.65h0a40.31,40.31,0,0,1-2-5.23A14.17,14.17,0,0,1,13,5.16c0-.85.2-1.43.54-1.64h0c.34-.2.94-.08,1.69.32a14.21,14.21,0,0,1,3,2.45,41.8,41.8,0,0,1,3.65,4.33h0l.45.83a.57.57,0,0,1-.2.78l-2.52,1.44,0,0-.87.51v0ZM42.64,28.53a8.63,8.63,0,0,1-6.2,6.17,16.22,16.22,0,0,0,3-5.57,13,13,0,0,0-.24-8.07,1.62,1.62,0,0,0,.29-.58,1.7,1.7,0,0,0-.07-1A8.64,8.64,0,0,1,42.64,28.53Zm-12,5.64-.49-.25-.13-.07c-.2-.11-.37-.25-.56-.38-.06-.38-.13-.82-.19-1.3-.09-.7-.15-1.47-.18-2.29a13.7,13.7,0,0,1,.35-3.77,11.89,11.89,0,0,1,3.13-5.64l.34-.29a4.4,4.4,0,0,0,2.54,1.62,5.43,5.43,0,0,0,1.37.18,3.78,3.78,0,0,0,1.56-.31,12.5,12.5,0,0,1,.11,7.18A17.27,17.27,0,0,1,35,34.94l-.7,0h-.05l-.63,0-.24,0-.48-.06c-.25,0-.5-.09-.74-.15h0c-.25-.07-.49-.14-.73-.23L31,34.31Zm-4.78-9.78c0-.07,0-.15,0-.22a8.63,8.63,0,0,1,7.21-6.36,1.69,1.69,0,0,0-.56.86,1.61,1.61,0,0,0,0,.55,8.29,8.29,0,0,0-.65.54,12.9,12.9,0,0,0-3.41,6.11,12.4,12.4,0,0,0-.35,2.36,19.4,19.4,0,0,0,0,2c0,.87.12,1.69.22,2.41a8.57,8.57,0,0,1-2.45-8.21Zm12.66-4.17a.67.67,0,0,1-.16.27,1.21,1.21,0,0,1-.41.29,3.52,3.52,0,0,1-2.26.07,3.42,3.42,0,0,1-2-1.23,1.13,1.13,0,0,1-.2-.47.63.63,0,0,1,0-.24c.12-.44.79-.78,1.71-.78a4.45,4.45,0,0,1,1.12.15,4,4,0,0,1,1.58.79,2,2,0,0,1,.48.57A.81.81,0,0,1,38.57,20.22Z"/></svg>