<?xml version="1.0" encoding="utf-8"?>
<!-- Generator: Adobe Illustrator 20.0.0, SVG Export Plug-In . SVG Version: 6.00 Build 0)  -->
<svg version="1.1" id="Layer_1" xmlns="http://www.w3.org/2000/svg" xmlns:xlink="http://www.w3.org/1999/xlink" x="0px" y="0px"
	 viewBox="0 0 48 36" style="enable-background:new 0 0 48 36;" xml:space="preserve">
<style type="text/css">
	.st0{fill:#333333;}
</style>
<g>
	<path class="st0" d="M46,16h-3l0-12h-4V0h-1v4H5v12H2v12h3v8h38.1l0-8H46V16z M3,27V17h2v10H3z M42.1,35H6v-7V16V5h32h1h3l0,11h0
		v12h0.1L42.1,35z M45,27h-2l0-10h2V27z"/>
	<path class="st0" d="M14,22c2.2,0,4-1.8,4-4c0-2.2-1.8-4-4-4c-2.2,0-4,1.8-4,4C10,20.2,11.8,22,14,22z M14,15c1.7,0,3,1.3,3,3
		c0,1.7-1.3,3-3,3c-1.7,0-3-1.3-3-3C11,16.3,12.3,15,14,15z"/>
	<path class="st0" d="M34,14c-2.2,0-4,1.8-4,4c0,2.2,1.8,4,4,4c2.2,0,4-1.8,4-4C38,15.8,36.2,14,34,14z M34,21c-1.7,0-3-1.3-3-3
		c0-1.7,1.3-3,3-3c1.7,0,3,1.3,3,3C37,19.7,35.7,21,34,21z"/>
	<rect x="10" y="27" class="st0" width="28" height="1.1"/>
</g>
</svg>
