<svg id="Layer_1" data-name="Layer 1" xmlns="http://www.w3.org/2000/svg" viewBox="0 0 48 36"><defs><style>.cls-1{fill:#333;}</style></defs><title>sym_web_ga</title><path class="cls-1" d="M30.646,21.989A12,12,0,1,0,17.376,22,14.11,14.11,0,0,0,5,36H43.106A14.112,14.112,0,0,0,30.646,21.989ZM22.215,35l1.567-8h.4l1.6,8Zm1.029-9-.9-3h3.312l-.9,3ZM26.8,35l-1.6-8h.3L27,22H21l1.5,5h.263L21.2,35H6.038A13.121,13.121,0,0,1,17.5,22.995l2.684-.331-2.253-1.5a11,11,0,1,1,12.162-.012l-2.264,1.509,2.7.316A13.1,13.1,0,0,1,42.068,35Z"/></svg>