<?xml version="1.0" encoding="utf-8"?>
<!-- Generator: Adobe Illustrator 20.0.0, SVG Export Plug-In . SVG Version: 6.00 Build 0)  -->
<svg version="1.1" id="Layer_1" xmlns="http://www.w3.org/2000/svg" xmlns:xlink="http://www.w3.org/1999/xlink" x="0px" y="0px"
	 viewBox="0 0 48 36" style="enable-background:new 0 0 48 36;" xml:space="preserve">
<style type="text/css">
	.st0{fill:#333333;}
</style>
<path class="st0" d="M44,26c-2,0-3.6,1.5-3.9,3.4l-18.7-1.9c0.4-1.1,0.7-2.3,0.7-3.5c0-1.8-0.5-3.4-1.2-4.8L33,12.6
	c0.7,0.9,1.8,1.4,3,1.4c2.2,0,4-1.8,4-4c0-2.2-1.8-4-4-4c-2.2,0-4,1.8-4,4c0,0.6,0.2,1.2,0.4,1.7l-12.2,6.6C18.4,15.7,15.4,14,12,14
	c-1.3,0-2.5,0.2-3.6,0.7L5.8,9.5C7.1,8.9,8,7.5,8,6c0-2.2-1.8-4-4-4S0,3.8,0,6c0,2.2,1.8,4,4,4c0.3,0,0.6,0,0.9-0.1l2.6,5.2
	C4.2,16.7,2,20.1,2,24c0,5.5,4.5,10,10,10c3.9,0,7.3-2.3,9-5.6l0,0.1L40,30.4c0.2,2,1.9,3.6,4,3.6c2.2,0,4-1.8,4-4
	C48,27.8,46.2,26,44,26z M36,7c1.7,0,3,1.3,3,3c0,1.7-1.3,3-3,3s-3-1.3-3-3C33,8.3,34.3,7,36,7z M1,6c0-1.7,1.3-3,3-3s3,1.3,3,3
	c0,1.7-1.3,3-3,3S1,7.7,1,6z M12,33c-5,0-9-4-9-9c0-5,4-9,9-9s9,4,9,9C21,29,17,33,12,33z M44,33c-1.7,0-3-1.3-3-3c0-1.7,1.3-3,3-3
	s3,1.3,3,3C47,31.7,45.7,33,44,33z"/>
</svg>
