<?xml version="1.0" encoding="utf-8"?>
<!-- Generator: Adobe Illustrator 20.0.0, SVG Export Plug-In . SVG Version: 6.00 Build 0)  -->
<svg version="1.1" id="Layer_1" xmlns="http://www.w3.org/2000/svg" xmlns:xlink="http://www.w3.org/1999/xlink" x="0px" y="0px"
	 viewBox="0 0 48 36" style="enable-background:new 0 0 48 36;" xml:space="preserve">
<style type="text/css">
	.st0{fill:#333333;}
</style>
<g>
	<path class="st0" d="M40,11V0H1v29h16v2h-4v3h15v-3h-4v-2h8v7h15V11H40z M27,32v1H14v-1h3h7H27z M23,31h-5v-2h5V31z M24,28h-7H2V1
		h37v10h-1V2H3v25h28.1H32v1H24z M32,11v1v14h-0.9H4V3h33v8h-4H32z M46,35H33v-6v-2V12h5h2h6V35z"/>
	<path class="st0" d="M39.5,31c-0.8,0-1.5,0.7-1.5,1.5s0.7,1.5,1.5,1.5s1.5-0.7,1.5-1.5S40.3,31,39.5,31z M39.5,33
		c-0.3,0-0.5-0.2-0.5-0.5s0.2-0.5,0.5-0.5s0.5,0.2,0.5,0.5S39.8,33,39.5,33z"/>
	<rect x="38" y="13" class="st0" width="3" height="1"/>
	<path class="st0" d="M34,30h11V15H34V30z M35,16h9v13h-9V16z"/>
</g>
</svg>
