<svg id="Layer_1" data-name="Layer 1" xmlns="http://www.w3.org/2000/svg" viewBox="0 0 48 36"><defs><style>.cls-1{fill:#333;}</style></defs><title>sym_web_ga</title><path class="cls-1" d="M43,7V3H0V33H43V25.827l2,1.218V24h3V7ZM42,32H1V25.707l3.037,3.037,9-11,5.017,5.017L24.4,14.3l-.8-.6-5.653,7.539-4.983-4.983-9,11L1,24.293V4H42V7H26V24H40l2,1.218Zm5-9H44v2.265l-3.48-2.12L40.281,23H27V8H47Z"/><rect class="cls-1" x="29" y="10" width="16" height="1"/><rect class="cls-1" x="29" y="13" width="16" height="1"/><rect class="cls-1" x="29" y="16" width="16" height="1"/><rect class="cls-1" x="29" y="19" width="16" height="1"/></svg>