<?xml version="1.0" encoding="utf-8"?>
<!-- Generator: Adobe Illustrator 20.0.0, SVG Export Plug-In . SVG Version: 6.00 Build 0)  -->
<svg version="1.1" id="Layer_1" xmlns="http://www.w3.org/2000/svg" xmlns:xlink="http://www.w3.org/1999/xlink" x="0px" y="0px"
	 viewBox="0 0 48 36" style="enable-background:new 0 0 48 36;" xml:space="preserve">
<style type="text/css">
	.st0{fill:#333333;}
</style>
<g>
	<path class="st0" d="M26.4,19.9h3.9v-6h-3.9c-0.3-1-0.7-1.9-1.2-2.8l2.7-2.7L23.7,4l-2.7,2.7c-0.9-0.5-1.8-0.9-2.8-1.2V1.8h-6v3.9
		c-1,0.3-1.9,0.7-2.8,1.2L6.6,4L2.3,8.3L5,11.1c-0.5,0.9-0.9,1.8-1.2,2.8H0v6h3.9c0.3,1,0.7,1.9,1.2,2.8l-2.7,2.7l4.3,4.3L9.3,27
		c0.9,0.5,1.8,0.9,2.8,1.2V32h6v-3.9c1-0.3,1.9-0.7,2.8-1.2l2.7,2.7l4.3-4.3l-2.7-2.7C25.7,21.8,26.1,20.9,26.4,19.9z M26.5,25.4
		l-2.9,2.9l-2-2l-0.5-0.5l-0.7,0.4c-0.8,0.5-1.7,0.8-2.6,1.1l-0.7,0.2v0.8V31h-4v-2.9v-0.8l-0.7-0.2c-0.9-0.2-1.8-0.6-2.6-1.1
		l-0.7-0.4l-0.5,0.5l-2,2l-2.9-2.9l2-2l0.5-0.5l-0.4-0.7c-0.5-0.8-0.8-1.7-1.1-2.6l-0.2-0.7H3.9H1v-4h2.9h0.8l0.2-0.7
		c0.2-0.9,0.6-1.8,1.1-2.6l0.4-0.7l-0.5-0.5l-2-2l2.9-2.9l2,2L9.1,8l0.7-0.4c0.8-0.5,1.7-0.8,2.6-1.1l0.7-0.2V5.6V2.8h4v2.9v0.8
		l0.7,0.2c0.9,0.2,1.8,0.6,2.6,1.1L21.1,8l0.5-0.5l2-2l2.9,2.9l-2,2L24,10.9l0.4,0.7c0.5,0.8,0.8,1.7,1.1,2.6l0.2,0.7h0.8h2.9v4
		h-2.9h-0.8l-0.2,0.7c-0.2,0.9-0.6,1.8-1.1,2.6L24,22.9l0.5,0.5L26.5,25.4z"/>
	<path class="st0" d="M46.3,27.7l0.7-3.6l-2.3-0.5c0-0.6-0.2-1.2-0.3-1.8l2-1.3l-2-3.1l-2,1.3c-0.5-0.4-1-0.8-1.5-1l0.5-2.3
		l-3.6-0.7l-0.5,2.3c-0.6,0-1.2,0.2-1.8,0.3l-1.3-2l-3.1,2l1.3,2c-0.4,0.5-0.8,1-1,1.5L29,20.3l-0.7,3.6l2.3,0.5
		c0,0.6,0.2,1.2,0.3,1.8l-2,1.3l2,3.1l2-1.3c0.5,0.4,1,0.8,1.5,1l-0.5,2.3l3.6,0.7l0.5-2.3c0.6,0,1.2-0.2,1.8-0.3l1.3,2l3.1-2
		l-1.3-2c0.4-0.5,0.8-1,1-1.5L46.3,27.7z M43.1,26.7c-0.2,0.5-0.5,0.9-0.9,1.3l-0.5,0.6l0.4,0.6l0.7,1.1l-1.4,0.9l-0.7-1.1l-0.4-0.6
		l-0.7,0.2c-0.5,0.2-1,0.3-1.6,0.3l-0.8,0L37,30.9l-0.3,1.3l-1.6-0.3l0.3-1.3l0.2-0.8l-0.7-0.3c-0.5-0.2-0.9-0.5-1.3-0.9L33,28
		l-0.6,0.4l-1.1,0.7l-0.9-1.4l1.1-0.7l0.6-0.4l-0.2-0.7c-0.2-0.5-0.3-1-0.3-1.6l0-0.8l-0.8-0.2l-1.3-0.3l0.3-1.6l1.3,0.3l0.8,0.2
		l0.3-0.7c0.2-0.5,0.5-0.9,0.9-1.3l0.5-0.6l-0.4-0.6l-0.7-1.1l1.4-0.9l0.7,1.1l0.4,0.6l0.7-0.2c0.5-0.2,1-0.3,1.6-0.3l0.8,0l0.2-0.8
		l0.3-1.3l1.6,0.3l-0.3,1.3l-0.2,0.8l0.7,0.3c0.5,0.2,0.9,0.5,1.3,0.9l0.6,0.5l0.6-0.4l1.1-0.7l0.9,1.4l-1.1,0.7l-0.6,0.4l0.2,0.7
		c0.2,0.5,0.3,1,0.3,1.6l0,0.8l0.8,0.2l1.3,0.3l-0.3,1.6l-1.3-0.3l-0.8-0.2L43.1,26.7z"/>
	<path class="st0" d="M15,14c-1.7,0-3,1.3-3,3s1.3,3,3,3s3-1.3,3-3S16.7,14,15,14z M15,19c-1.1,0-2-0.9-2-2s0.9-2,2-2s2,0.9,2,2
		S16.1,19,15,19z"/>
	<path class="st0" d="M38,22c-1.1,0-2,0.9-2,2s0.9,2,2,2s2-0.9,2-2S39.1,22,38,22z M38,25c-0.6,0-1-0.4-1-1s0.4-1,1-1s1,0.4,1,1
		S38.6,25,38,25z"/>
</g>
</svg>
