<?xml version="1.0" encoding="utf-8"?>
<!-- Generator: Adobe Illustrator 20.0.0, SVG Export Plug-In . SVG Version: 6.00 Build 0)  -->
<svg version="1.1" id="Layer_1" xmlns="http://www.w3.org/2000/svg" xmlns:xlink="http://www.w3.org/1999/xlink" x="0px" y="0px"
	 viewBox="0 0 48 36" style="enable-background:new 0 0 48 36;" xml:space="preserve">
<style type="text/css">
	.st0{fill:#333333;}
</style>
<path class="st0" d="M43,14c0-1.8-1.2-3.3-2.8-3.8C37.3,4.2,31.1,0,24,0c-4.3,0-8.3,1.5-11.4,4.1C12.4,4,12.2,4,12,4
	C9.8,4,8,5.8,8,8c0,0.3,0.1,0.8,0.3,1.3C6.8,11.9,6,14.8,6,18c0,6.5,3.5,12.2,8.6,15.3c0.1,0.1,0.2,0.2,0.3,0.2
	c2.7,1.6,5.7,2.5,9,2.5c9.9,0,18-8.1,18-18c0-0.3,0-0.6,0-0.9C42.5,15.9,43,14.7,43,14z M40.9,16.8c-0.6,1.1-1.3,2.3-1.9,3.3
	c-1.4-2.2-3-5.1-3-6.2c0-1.7,1.3-3,3-3c0.2,0,0.3,0,0.5,0.1c0.5,0.1,0.9,0.3,1.3,0.6C41.5,12.2,42,13,42,14c0,0.3-0.1,0.6-0.3,1.1
	C41.6,15.6,41.3,16.2,40.9,16.8z M9,8c0-1.4,1-2.6,2.4-2.9c0.1,0,0.1,0,0.2,0c0.1,0,0.2,0,0.2,0c0.1,0,0.2,0,0.2,0
	c0.3,0,0.6,0.1,0.9,0.2C14.1,5.5,15,6.7,15,8c0,0.5-0.4,1.5-0.9,2.6c-0.2,0.3-0.4,0.7-0.5,1c-0.5,0.9-1,1.7-1.5,2.5
	c-1-1.6-2.1-3.5-2.6-4.8C9.2,8.8,9,8.4,9,8C9,8,9,8,9,8z M8.8,10.5C9.9,13,12,16,12,16s1.1-1.5,2.1-3.3c0,0,0,0,0,0
	c0.3,0.8,0.5,1.3,0.4,2.1c-0.1,0.7-0.4,0.9-0.8,1.1c-0.3,0.2-0.7,0.5-1,1c-0.2,0.3-0.2,0.7-0.1,0.9l0,0.2c0,0.4-0.1,0.8-0.4,1.1
	c-0.5,0.2-1,0.2-1.6,0.2c-0.1,0-0.1,0-0.1,0c0,0,0-0.1-0.1-0.2c-0.1-0.2-0.1-0.4-0.2-0.7c-0.2-0.8-0.4-1.6-0.8-2.3
	c-0.5-0.7-1.3-1.3-2.2-1.4C7.6,13.3,8.1,11.8,8.8,10.5z M24,35c-2.9,0-5.7-0.8-8.1-2.1l0-0.1c0.1-0.3,0.2-0.6,0.2-0.8
	c0-0.1,0-0.2,0-0.3c0.1-0.5,0.5-0.9,0.9-1.1c0.2-0.1,0.5-0.1,0.8-0.1c0.2,0,0.4,0,0.6,0c0.8-0.1,1.4-0.5,1.6-1.1c0,0,0,0,0,0
	c0.6,0.9,1,1.5,1,1.5s0.8-1.1,1.7-2.6c0.5,0.1,0.9,0.2,1.3,0.5c0.7,0.4,1.8,0.9,2.9,0.5c0.3-0.1,0.6-0.3,0.9-0.4
	c0.6-0.3,1-0.5,1.3-0.4c0.3,0.1,0.5,0.4,0.7,0.7c0.1,0.2,0.3,0.4,0.3,0.6c0,0.1,0,0.1,0,0.2c0,0.2,0,0.3,0.1,0.5
	c0.2,0.5,0.7,0.7,1.1,0.8c0.2,0.1,0.3,0.1,0.5,0.2c0.4,0.2,0.7,0.8,0.7,1C30,34.1,27.1,35,24,35z M19.9,27.5
	C18.9,25.7,18,23.8,18,23c0-1.7,1.3-3,3-3c1.7,0,3,1.3,3,3c0,0.8-0.8,2.5-1.8,4.3c-0.2,0.3-0.4,0.7-0.6,1c-0.2,0.3-0.4,0.6-0.6,0.9
	c-0.2-0.3-0.4-0.6-0.5-0.9C20.3,28,20.1,27.8,19.9,27.5z M33.4,32.1c-0.2-0.6-0.7-1.1-1-1.3c-0.2-0.2-0.5-0.2-0.7-0.3
	c-0.2-0.1-0.5-0.2-0.5-0.3c0,0,0-0.1,0-0.2c0-0.1,0-0.2,0-0.3c-0.1-0.4-0.3-0.7-0.5-1c-0.3-0.4-0.6-0.9-1.2-1.1
	c-0.8-0.3-1.5,0.1-2.1,0.4c-0.3,0.1-0.5,0.3-0.7,0.3c-0.7,0.2-1.3,0-2.2-0.5c-0.4-0.2-0.8-0.4-1.2-0.5C24.1,25.8,25,24,25,23
	c0-2.2-1.8-4-4-4c-2.2,0-4,1.8-4,4c0,1.2,1.1,3.4,2.2,5.2c-0.1,0.2-0.1,0.5-0.1,0.6c0,0.1,0,0.2,0,0.3c-0.1,0.3-0.5,0.4-0.8,0.4
	c-0.2,0-0.3,0-0.5,0c-0.3,0-0.7,0-1,0.1c-0.8,0.3-1.5,1-1.6,1.9c0,0.1,0,0.2,0,0.3c0,0.2,0,0.3-0.1,0.4c-4.8-3-8-8.3-8-14.4
	c0-0.7,0.1-1.5,0.2-2.2c0.6,0,1.1,0.4,1.5,0.9c0.4,0.6,0.5,1.2,0.7,2c0.1,0.2,0.1,0.5,0.2,0.7c0,0.2,0.2,0.5,0.5,0.8
	c0.2,0.1,0.4,0.2,0.5,0.2c0.2,0,0.4,0,0.6,0c0.5,0,1.1-0.1,1.6-0.3l0.1,0l0.1-0.1c0.5-0.5,0.7-1.2,0.7-1.9l0-0.2c0-0.2,0-0.3,0-0.4
	c0.2-0.3,0.4-0.5,0.7-0.6c0.5-0.3,1-0.7,1.2-1.8c0.1-1-0.2-1.9-0.5-2.6c-0.1-0.2-0.2-0.5-0.4-0.7C15.4,10.2,16,8.9,16,8
	c0-1.6-0.9-2.9-2.2-3.6c1.3-1,2.8-1.8,4.4-2.4c0.3,0.1,0.5,0.4,0.8,0.7c0.3,0.3,0.6,0.7,1,0.9c0.1,0,0.2,0.1,0.2,0.1
	c0.2,0.1,0.4,0.2,0.5,0.3c0,0.1,0,0.3,0,0.4c0,0.2,0,0.5,0,0.8l0,0.2l0.1,0.1c0.2,0.2,0.5,0.2,0.8,0.2c0.4-0.1,0.7-0.3,0.9-0.6
	c0.3-0.4,0.3-0.8,0.4-1.2l0-0.2c0-0.3,0.1-0.6,0.4-0.8c0.2-0.1,0.5-0.2,0.8-0.1c0.8,0.3,1.1,1.2,1,2c0,0.4-0.1,0.8-0.2,1.2
	c-0.1,0.4-0.2,0.7-0.2,1.1c-0.2,1.1,0.1,2.1,0.7,2.7c0.2,0.2,0.5,0.4,0.7,0.5c0.2,0.1,0.4,0.2,0.5,0.4c0.5,0.5,0.4,0.9,0.4,1.6
	c0,0.2,0,0.4,0,0.6c0,1.2,1,2.3,2.1,2.8c0.8,0.4,1.6,0.6,2.4,0.7c0.3,0.1,0.7,0.1,1,0.2c0.4,0.1,1,0.3,1,0.7c0,0.2,0,0.4-0.1,0.6
	c-0.1,0.3-0.2,0.7-0.1,1.1l0.1,0.2l0.2,0.1c0.7,0.3,1.4,0.7,1.5,1.3c0,0.2,0,0.4,0,0.6l0,0.3c-0.2,1.3,0.4,2.8,1.8,3.2
	c0.2,0.1,0.4,0.1,0.6,0.1c0.2,0,0.4,0,0.5,0.1c0.6,0.2,0.8,0.4,1,1C37.7,28.5,35.7,30.6,33.4,32.1z M39.5,24.9
	c-0.3-0.4-0.6-0.6-1.3-0.8C38,24,37.8,24,37.6,24c-0.2,0-0.3,0-0.5-0.1c-0.8-0.2-1.1-1.2-1-2.1l0-0.2c0-0.3,0.1-0.6,0-0.9
	c-0.1-1-0.9-1.5-1.8-1.9c0-0.1,0.1-0.3,0.1-0.4c0.1-0.3,0.2-0.7,0.1-1.1c-0.1-0.7-0.7-1.2-1.8-1.5c-0.3-0.1-0.7-0.2-1-0.2
	c-0.8-0.2-1.5-0.3-2.2-0.7c-0.8-0.4-1.5-1.2-1.5-1.9c0-0.2,0-0.4,0-0.6c0.1-0.7,0.1-1.6-0.7-2.4c-0.2-0.2-0.4-0.4-0.7-0.5
	c-0.2-0.1-0.4-0.3-0.5-0.4c-0.5-0.5-0.5-1.4-0.5-1.9c0-0.3,0.1-0.7,0.2-1c0.1-0.4,0.2-0.9,0.3-1.4c0.1-1.4-0.5-2.6-1.7-3
	c-0.6-0.2-1.3-0.1-1.7,0.2c-0.5,0.4-0.6,1-0.7,1.4l0,0.2C22,4,22,4.3,21.9,4.5c0,0.1-0.1,0.1-0.2,0.1c0,0,0-0.1,0-0.1
	c0-0.3,0-0.6-0.1-0.9c-0.2-0.4-0.6-0.6-0.9-0.8l-0.2-0.1c-0.2-0.1-0.5-0.4-0.7-0.7c-0.1-0.1-0.2-0.3-0.4-0.4C20.8,1.2,22.4,1,24,1
	c6.5,0,12.1,3.7,15,9c-2.2,0-4,1.8-4,4c0,2.2,4,8,4,8s1-1.4,2-3.1C40.8,21,40.3,23,39.5,24.9z"/>
</svg>
