<svg id="Layer_1" data-name="Layer 1" xmlns="http://www.w3.org/2000/svg" viewBox="0 0 48 36"><defs><style>.cls-1{fill:#333;}</style></defs><title>sym_web_ga</title><path class="cls-1" d="M34.21,27.31A15.34,15.34,0,0,1,8,16.43,15.44,15.44,0,0,1,23.36,1H24V0h-.64A16.44,16.44,0,0,0,7,16.43a16.36,16.36,0,0,0,12.9,16,11.27,11.27,0,0,0-3.53,1.85c-.44.35-1.19,1.13-1.19,1.69H32.79c0-.57-.76-1.35-1.2-1.69a11.44,11.44,0,0,0-4.13-2A16.21,16.21,0,0,0,34.91,28ZM17.13,35A11.31,11.31,0,0,1,24,32.82,11.31,11.31,0,0,1,30.86,35Z"/><path class="cls-1" d="M13.86,6.84a13.58,13.58,0,1,0,9.6-4A13.6,13.6,0,0,0,13.86,6.84ZM26.58,4.26a.65.65,0,0,1-.27.33l-.22.14a2.27,2.27,0,0,0-.78.71,2.49,2.49,0,0,0-.26,1.28,4.12,4.12,0,0,1-1,2.82,5.62,5.62,0,0,1-1.72,1,9.05,9.05,0,0,0-1.49.78A4.79,4.79,0,0,0,19,13.88a3.4,3.4,0,0,0-.1.89c0,.62-.06.89-.27,1s-.78-.27-1-.63a4,4,0,0,1-.29-1.66v-.15a3.85,3.85,0,0,0-.63-2.25,4.25,4.25,0,0,0-.41-.44,1.88,1.88,0,0,1-.41-.49,1.9,1.9,0,0,1,0-1,2.77,2.77,0,0,0-.12-1.55,1.34,1.34,0,0,0-.6-.59,12.48,12.48,0,0,1,8.28-3.13A12.63,12.63,0,0,1,26.58,4.26ZM18.33,27.92a3.9,3.9,0,0,0,1.56-1.64A9.7,9.7,0,0,0,20.58,24c.1-.46.2-.9.34-1.32.31-.95,1-2,2-2.12a4.67,4.67,0,0,0,1.48-.17,2.64,2.64,0,0,0,1.09-1c.08-.12.16-.23.24-.34a1,1,0,0,1,.6-.39h0a2.74,2.74,0,0,0,2,1.82,5.66,5.66,0,0,0,.7,3.71,6.15,6.15,0,0,0,.72.83,6.58,6.58,0,0,1,.53.58,1.28,1.28,0,0,1,.3,1.2,12.54,12.54,0,0,1-12.27,1.13ZM36,17.6c-1.36.52-2.37.57-2.64.14a2.55,2.55,0,0,1-.22-1.22,5.17,5.17,0,0,0-.1-1,3.94,3.94,0,0,0-1.13-2l-.13-.12a1.37,1.37,0,0,1-.3-.33,1.37,1.37,0,0,1-.08-.48,3.4,3.4,0,0,1,.19-1.76,3.43,3.43,0,0,1,.48-.63l1.34-1.53A12.57,12.57,0,0,1,36,17.6ZM32.72,7.95,31.28,9.58a4.32,4.32,0,0,0-.61.82,4.28,4.28,0,0,0-.3,2.29,2.16,2.16,0,0,0,.19.87,2.14,2.14,0,0,0,.53.62l.11.1A2.93,2.93,0,0,1,32,15.74a4.35,4.35,0,0,1,.08.82,3.34,3.34,0,0,0,.38,1.72,1.77,1.77,0,0,0,1.62.76,5.74,5.74,0,0,0,1.71-.32,12.5,12.5,0,0,1-3.47,6.62c-.24.24-.5.47-.76.69a2.73,2.73,0,0,0-.5-1,7.44,7.44,0,0,0-.61-.67,5.38,5.38,0,0,1-.61-.69,5.49,5.49,0,0,1-.49-3.54.5.5,0,0,0-.49-.54,1.75,1.75,0,0,1-1.62-1.33.5.5,0,0,0-.17-.28,1.19,1.19,0,0,0-.88-.26,2,2,0,0,0-1.29.76c-.1.12-.19.26-.28.39a1.88,1.88,0,0,1-.66.69,5.68,5.68,0,0,1-1.21.1A3.67,3.67,0,0,0,20,22.41c-.15.47-.26,1-.36,1.42a8.8,8.8,0,0,1-.61,2,2.41,2.41,0,0,1-1.94,1.42A12.53,12.53,0,0,1,14.33,7.8a.45.45,0,0,1,.27,0,.51.51,0,0,1,.27.18,1.91,1.91,0,0,1,0,1A2.77,2.77,0,0,0,15,10.56a2.73,2.73,0,0,0,.62.78,3.18,3.18,0,0,1,.31.33,3,3,0,0,1,.42,1.68v.15a4.85,4.85,0,0,0,.4,2.08,2.23,2.23,0,0,0,1.76,1.19,1.23,1.23,0,0,0,.48-.1c.84-.35.86-1.23.88-1.87a2.8,2.8,0,0,1,.06-.63,3.79,3.79,0,0,1,1.45-2,8.15,8.15,0,0,1,1.33-.69,6.44,6.44,0,0,0,2-1.21,5.16,5.16,0,0,0,1.3-3.59,1.53,1.53,0,0,1,.11-.7,1.49,1.49,0,0,1,.47-.39l.25-.17a1.67,1.67,0,0,0,.64-.86,12.52,12.52,0,0,1,4.81,3C32.48,7.67,32.59,7.81,32.72,7.95Z"/></svg>