<svg id="Layer_1" data-name="Layer 1" xmlns="http://www.w3.org/2000/svg" viewBox="0 0 48 36"><defs><style>.cls-1{fill:#333;}</style></defs><title>sym_web_ga</title><path class="cls-1" d="M24,36a17.91,17.91,0,0,1-3.24-2.67C19.33,32,18,30.65,17.93,30.62c-1.47-1.47-3-3-4.47-4.58s-2.92-3.25-4.26-5a20.26,20.26,0,0,1-2.15-3.48,22.21,22.21,0,0,1-1.46-4c-.15-.55-.3-1.15-.41-1.76A9.7,9.7,0,0,1,5,10a10,10,0,0,1,2.86-7,9.58,9.58,0,0,1,12.64-1A10,10,0,0,1,24,6.81a10,10,0,0,1,3.49-4.89A9.54,9.54,0,0,1,33.24,0a9.64,9.64,0,0,1,6.9,2.92A10,10,0,0,1,43,10a11.5,11.5,0,0,1-.22,2.12c-.13.68-.3,1.31-.45,1.86a21.61,21.61,0,0,1-1.53,3.92,21.23,21.23,0,0,1-2.26,3.52c-.73.93-1.49,1.83-2.22,2.66s-1.43,1.59-2,2.24c-1.57,1.68-3,3.2-4.43,4.59s-2.75,2.66-4.09,3.85l-.1.1-.13.13a7,7,0,0,1-.8.74A1.27,1.27,0,0,1,24,36ZM14.75,1A8.62,8.62,0,0,0,8.57,3.63,9,9,0,0,0,6,10a8.84,8.84,0,0,0,.17,1.73c.11.57.25,1.13.39,1.65a21.24,21.24,0,0,0,1.39,3.77,19.22,19.22,0,0,0,2,3.31c1.32,1.72,2.75,3.37,4.21,4.94s3,3.08,4.43,4.54c.62.61,1.78,1.71,2.89,2.74s2.17,2,2.57,2.3a3.66,3.66,0,0,0,.38-.34l.35-.35L25,34.1l.13-.12c1.33-1.19,2.66-2.44,4.05-3.82s2.84-2.88,4.4-4.55c.6-.64,1.29-1.39,2-2.21s1.47-1.7,2.19-2.62a20.22,20.22,0,0,0,2.15-3.36,20.59,20.59,0,0,0,1.45-3.74c.15-.52.3-1.12.43-1.75A10.54,10.54,0,0,0,42,10a9,9,0,0,0-2.57-6.33,8.59,8.59,0,0,0-12.37,0C25.48,5.25,24,10,24,10s-1.48-4.71-3.07-6.33A8.63,8.63,0,0,0,14.75,1Zm9.75,9h0Z"/></svg>