<svg id="Layer_1" data-name="Layer 1" xmlns="http://www.w3.org/2000/svg" viewBox="0 0 48 36"><defs><style>.cls-1{fill:#333;}</style></defs><title>sym_web_ga</title><path class="cls-1" d="M44,20a.5.5,0,0,0-.034-.186L39.025,7.468a2.492,2.492,0,1,0-3.367-3.646l-9.5-1.9a2.984,2.984,0,0,0-4.313,0l-9.5,1.9A2.492,2.492,0,1,0,8.975,7.468L4.036,19.814A.5.5,0,0,0,4,20H4v.5C4,23.191,6.612,25,10.5,25S17,23.191,17,20.5V20h0a.5.5,0,0,0-.034-.186L12.025,7.468A2.49,2.49,0,0,0,12.95,6h8.829A3.008,3.008,0,0,0,22,6.221V31.5L16,33v2H32V33l-6-1.5V6.221A3.008,3.008,0,0,0,26.221,6H35.05a2.49,2.49,0,0,0,.924,1.468L31.036,19.814A.5.5,0,0,0,31,20h0v.5c0,2.691,2.612,4.5,6.5,4.5S44,23.191,44,20.5V20ZM9,5.49a1.5,1.5,0,0,1,2.886-.558c.009.022.013.045.021.068A1.5,1.5,0,1,1,9,5.5Zm.873,2.421c.043.011.082.029.126.038V20H5.038ZM10.5,24c-3.021,0-5.131-1.186-5.456-3H15.956C15.631,22.814,13.521,24,10.5,24Zm5.462-4H11V7.95c.044-.009.083-.027.126-.038ZM12.95,5a2.435,2.435,0,0,0-.081-.264L21.16,3.078A2.967,2.967,0,0,0,21,4a2.972,2.972,0,0,0,.184,1ZM31,33.781V34H17v-.219l5-1.25.5-.125.5-.125,1-.25,1,.25.5.125.5.125ZM23,31.25V6.816a2.813,2.813,0,0,0,2,0V31.25L24,31ZM25.722,5A1.955,1.955,0,1,1,26,4,1.992,1.992,0,0,1,25.722,5ZM35.05,5H26.816A2.972,2.972,0,0,0,27,4a2.967,2.967,0,0,0-.16-.922l8.291,1.658A2.435,2.435,0,0,0,35.05,5Zm1.042,0c.008-.022.012-.046.021-.068A1.5,1.5,0,0,1,37,4.091,1.5,1.5,0,0,1,39,5.5h0A1.5,1.5,0,1,1,36.092,5Zm.782,2.911c.043.011.082.029.126.038V20H32.038ZM37.5,24c-3.021,0-5.131-1.186-5.456-3H42.956C42.631,22.814,40.521,24,37.5,24Zm.5-4V7.95c.044-.009.083-.027.126-.038L42.962,20Z"/></svg>