<svg id="Layer_1" data-name="Layer 1" xmlns="http://www.w3.org/2000/svg" viewBox="0 0 48 36"><defs><style>.cls-1{fill:#333;}</style></defs><title>sym_web_ga</title><polygon class="cls-1" points="23.82 20.98 26.45 23.61 15.52 34.55 7.95 26.98 18.89 16.05 21.52 18.68 22.23 17.97 18.89 14.63 6.54 26.98 15.52 35.96 27.87 23.61 24.53 20.27 23.82 20.98"/><polygon class="cls-1" points="33.48 0.04 21.13 12.39 24.47 15.73 25.18 15.02 22.55 12.39 33.48 1.45 41.05 9.02 30.11 19.95 27.48 17.32 26.77 18.03 30.11 21.37 42.46 9.02 33.48 0.04"/><polygon class="cls-1" points="18.7 24.68 23.11 20.27 23.82 19.57 26.07 17.32 26.77 16.61 31.75 11.64 30.86 10.76 25.89 15.73 25.18 16.43 22.93 18.68 22.23 19.39 17.82 23.8 18.7 24.68"/></svg>