<?xml version="1.0" encoding="utf-8"?>
<!-- Generator: Adobe Illustrator 20.0.0, SVG Export Plug-In . SVG Version: 6.00 Build 0)  -->
<svg version="1.1" id="Layer_1" xmlns="http://www.w3.org/2000/svg" xmlns:xlink="http://www.w3.org/1999/xlink" x="0px" y="0px"
	 viewBox="0 0 48 36" style="enable-background:new 0 0 48 36;" xml:space="preserve">
<style type="text/css">
	.st0{fill:#333333;}
</style>
<g>
	<path class="st0" d="M20,4H8v12h12V4z M19,15H9V5h10V15z"/>
	<rect x="23" y="5" class="st0" width="13" height="1"/>
	<rect x="23" y="10" class="st0" width="13" height="1"/>
	<rect x="23" y="15" class="st0" width="13" height="1"/>
	<polygon class="st0" points="23,21 8,21 8,22 23,22 24,22 36,22 36,21 24,21 	"/>
	<polygon class="st0" points="23,26 8,26 8,27 23,27 24,27 36,27 36,26 24,26 	"/>
	<polygon class="st0" points="23,31 8,31 8,32 23,32 24,32 36,32 36,31 24,31 	"/>
	<path class="st0" d="M40,4V0H4v33.1C4,34.7,5.3,36,6.9,36H44V4H40z M43,35H6.9C5.9,35,5,34.1,5,33.1V1h34v31h1V5h3V35z"/>
</g>
</svg>
