<svg id="Layer_1" data-name="Layer 1" xmlns="http://www.w3.org/2000/svg" viewBox="0 0 48 36"><defs><style>.cls-1{fill:#333;}</style></defs><title>sym_web_ga</title><path class="cls-1" d="M19,10V2H3V31H2V24H0v.991H1v7H3V32H19v-.009h4V36h1V31H19ZM9,31H7V30H9Zm6,0H13V30h2Zm3,0H16V29H12v2H10V29H6v2H4V3H18Z"/><path class="cls-1" d="M46,26v5H45V4H29V33H27v3h1V33.991h1v.021l.021-.021H32V34h4v-.009h2V34h4v-.009h2V33H42V31H38v2H36V31H32v2H30V4.988H44V31H43v1.991h1v-1h.979l.021.021v-.021h2V27h1V26Zm-7,6h2v1H39Zm-6,0h2v1H33Z"/><path class="cls-1" d="M10,5H6V9h4ZM9,8H7V6H9Z"/><path class="cls-1" d="M16,5H12V9h4ZM15,8H13V6h2Z"/><path class="cls-1" d="M10,11H6v4h4ZM9,14H7V12H9Z"/><path class="cls-1" d="M16,11H12v4h4Zm-1,3H13V12h2Z"/><path class="cls-1" d="M10,17H6v4h4ZM9,20H7V18H9Z"/><path class="cls-1" d="M16,17H12v4h4Zm-1,3H13V18h2Z"/><path class="cls-1" d="M10,23H6v4h4ZM9,26H7V24H9Z"/><path class="cls-1" d="M16,23H12v4h4Zm-1,3H13V24h2Z"/><path class="cls-1" d="M36,7H32v4h4Zm-1,3H33V8h2Z"/><path class="cls-1" d="M42,7H38v4h4Zm-1,3H39V8h2Z"/><path class="cls-1" d="M36,13H32v4h4Zm-1,3H33V14h2Z"/><path class="cls-1" d="M42,13H38v4h4Zm-1,3H39V14h2Z"/><path class="cls-1" d="M36,19H32v4h4Zm-1,3H33V20h2Z"/><path class="cls-1" d="M42,19H38v4h4Zm-1,3H39V20h2Z"/><path class="cls-1" d="M32,29h4V25H32Zm1-3h2v2H33Z"/><path class="cls-1" d="M24.476,6.835A4.707,4.707,0,0,1,25.652,10a4.707,4.707,0,0,1-1.176,3.165l.743.67A5.707,5.707,0,0,0,26.652,10a5.707,5.707,0,0,0-1.433-3.835Z"/><path class="cls-1" d="M20.864,11.4a2.462,2.462,0,0,0,.1-2.624l-.846.529a1.465,1.465,0,0,1-.053,1.492Z"/><path class="cls-1" d="M22.854,12.768a3.879,3.879,0,0,0,.195-5.3L22.2,8a2.9,2.9,0,0,1-.051,4.059Z"/><path class="cls-1" d="M23.524,24.165a4.846,4.846,0,0,1,0-6.33l-.743-.67a5.848,5.848,0,0,0,0,7.67Z"/><path class="cls-1" d="M27.939,21.8a1.465,1.465,0,0,1-.053-1.492l-.846-.529a2.462,2.462,0,0,0,.1,2.624Z"/><path class="cls-1" d="M25.8,19l-.851-.532a3.879,3.879,0,0,0,.195,5.3l.707-.707A2.9,2.9,0,0,1,25.8,19Z"/><path class="cls-1" d="M38,29h4V25H38Zm1-3h2v2H39Z"/></svg>