<svg id="Layer_1" data-name="Layer 1" xmlns="http://www.w3.org/2000/svg" viewBox="0 0 48 36"><title>sym_web_ga</title><path d="M38,36H10V15H38V36ZM11,35H37V16H11V35Z"/><path d="M33.5,15.5A0.5,0.5,0,0,1,33,15V7.77C33,3.78,28.26,1,24,1s-9,2.93-9,6.85V15a0.5,0.5,0,0,1-1,0V7.85C14,3.23,19.27,0,24,0S34,3.19,34,7.77V15A0.5,0.5,0,0,1,33.5,15.5Z"/><path d="M24,28.07A3.08,3.08,0,1,1,27.08,25,3.08,3.08,0,0,1,24,28.07Zm0-5.15A2.08,2.08,0,1,0,26.08,25,2.08,2.08,0,0,0,24,22.92Z"/><rect x="23.5" y="27.07" width="1" height="4.43"/></svg>