<svg id="Layer_1" data-name="Layer 1" xmlns="http://www.w3.org/2000/svg" viewBox="0 0 48 36"><defs><style>.cls-1{fill:#333;}</style></defs><title>sym_web_ga</title><path class="cls-1" d="M42.32,28.23A7.5,7.5,0,1,0,29,22.79,13.72,13.72,0,0,0,25.87,22,13,13,0,0,0,31,12.21,12.29,12.29,0,0,0,19,0,12.35,12.35,0,0,0,7,12.21c0,4,2.42,7.54,5.2,9.77A14.07,14.07,0,0,0,0,36H48A8.26,8.26,0,0,0,42.32,28.23ZM37,35H26a7.3,7.3,0,0,1,5-5.86l1.37-.45-.91-1.13a6.41,6.41,0,0,1-1.36-3.23A6.55,6.55,0,0,1,30,23.5c0-.1,0-.2,0-.29a6.5,6.5,0,0,1,13,.29,6.42,6.42,0,0,1-1.45,4.09l-.91,1.11,1.36.46A7.31,7.31,0,0,1,46.93,35H37ZM1,35A13.08,13.08,0,0,1,12.33,23l2.34-.3L12.82,21.2a12,12,0,0,1-4.82-9A11.42,11.42,0,0,1,19,1,11.24,11.24,0,0,1,30,12.21a11.91,11.91,0,0,1-4.75,9l-1.84,1.47,2.34.3a12.74,12.74,0,0,1,3.27.87,7.46,7.46,0,0,0,1.64,4.35A8.29,8.29,0,0,0,25,35Z"/></svg>