<svg id="Layer_1" data-name="Layer 1" xmlns="http://www.w3.org/2000/svg" viewBox="0 0 48 36"><defs><style>.cls-1{fill:#333;}</style></defs><title>sym_web_ga</title><path class="cls-1" d="M4,11A3,3,0,0,0,7,8V0H6V8a2,2,0,0,1-2,2l0-10H3V10A2,2,0,0,1,1,8V0H0V8a3,3,0,0,0,3,3V36H4"/><path class="cls-1" d="M48,0H46.93A3,3,0,0,0,44,3V21h3V36h1ZM45,20V3a2.05,2.05,0,0,1,2-2V20Z"/><path class="cls-1" d="M25.5,2A15.77,15.77,0,0,1,41,18,15.77,15.77,0,0,1,25.5,34,15.77,15.77,0,0,1,10,18,15.77,15.77,0,0,1,25.5,2m0-1A16.76,16.76,0,0,0,9,18,16.76,16.76,0,0,0,25.5,35,16.76,16.76,0,0,0,42,18,16.76,16.76,0,0,0,25.5,1Z"/><path class="cls-1" d="M25.5,8A10.21,10.21,0,0,1,35.89,18,10.21,10.21,0,0,1,25.5,28,10.21,10.21,0,0,1,15.11,18,10.21,10.21,0,0,1,25.5,8m0-1A11.2,11.2,0,0,0,14.11,18,11.2,11.2,0,0,0,25.5,29,11.2,11.2,0,0,0,36.89,18,11.2,11.2,0,0,0,25.5,7Z"/></svg>