<svg id="Layer_1" data-name="Layer 1" xmlns="http://www.w3.org/2000/svg" viewBox="0 0 48 36"><defs><style>.cls-1{fill:#333;}</style></defs><title>sym_web_ga</title><path class="cls-1" d="M37,5H21L19,2H11L9,5H5V28H37ZM36,27H6V6H9.535l.3-.445L11.535,3h6.93l1.7,2.555.3.445H36Z"/><polygon class="cls-1" points="40 7 39 7 39 30 7 30 7 31 40 31 40 7"/><polygon class="cls-1" points="42 10 42 33 9 33 9 34 43 34 43 10 42 10"/><path class="cls-1" d="M21,8V9.064a3.668,3.668,0,0,0-2.929,1.678,3.475,3.475,0,0,0-.238,3.39,5.5,5.5,0,0,0,4.142,2.827c1.983.308,4.283,1.144,3.98,3.376-.2,1.5-2.142,2.623-3.739,2.623a4.86,4.86,0,0,1-4.777-2.709l-.878.48A5.756,5.756,0,0,0,21,23.862V25h1V23.947c.073,0,.141.011.216.011,2.056,0,4.447-1.4,4.73-3.488.186-1.372-.193-3.781-4.818-4.5a4.546,4.546,0,0,1-3.389-2.263,2.483,2.483,0,0,1,.19-2.45C19.593,10.152,20.9,10,22.216,10a4.506,4.506,0,0,1,1.516.258,3.969,3.969,0,0,1,1.223.694l.645-.764a4.938,4.938,0,0,0-1.53-.872A5.5,5.5,0,0,0,22.216,9c-.071,0-.144,0-.216,0V8Z"/></svg>