<svg id="Layer_1" data-name="Layer 1" xmlns="http://www.w3.org/2000/svg" viewBox="0 0 48 36"><defs><style>.cls-1{fill:#333;}</style></defs><title>sym_web_ga</title><polygon class="cls-1" points="38 4 38 35 13.026 35 13.026 36 38.974 36 38.974 4 38 4"/><polygon class="cls-1" points="36 2 35 2 35 32 11 32 11 33 36 33 36 2"/><path class="cls-1" d="M33,0H9V30H33ZM32,29H10V1H32Z"/><path class="cls-1" d="M31,6H21v8H31Zm-1,7H22V7h8Z"/><path class="cls-1" d="M15,25a4,4,0,1,0-4-4A4,4,0,0,0,15,25Zm0-7a2.987,2.987,0,0,1,2.147.911L15,20.139Zm-1,.184V21a.5.5,0,0,0,.748.435l2.965-1.694A2.968,2.968,0,0,1,18,21a3,3,0,1,1-4-2.816Z"/><rect class="cls-1" x="11" y="6" width="8" height="1"/><rect class="cls-1" x="11" y="8" width="8" height="1"/><rect class="cls-1" x="11" y="10" width="6" height="1"/><rect class="cls-1" x="11" y="12" width="8" height="1"/><rect class="cls-1" x="21" y="17" width="10" height="1"/><rect class="cls-1" x="21" y="19" width="10" height="1"/><rect class="cls-1" x="21" y="21" width="10" height="1"/><rect class="cls-1" x="21" y="24" width="8" height="1"/></svg>