<svg id="Layer_1" data-name="Layer 1" xmlns="http://www.w3.org/2000/svg" viewBox="0 0 48 36"><defs><style>.cls-1{fill:#333;}</style></defs><title>sym_web_ga</title><path class="cls-1" d="M24.75.17,24.51,0,8,9V27L19,33h0l5.5,3L40,27V9ZM39,15.09l-4,2.22V12.36l4-2.26Zm-9.59-.72-3.63-2.05,4-2.28,3.63,2.05Zm-1,.57-3.91,2.21-3.75-2,4-2.27Zm-8.71-.33-4.83-2.56,4.21-2.37,4.69,2.65Zm-.68.77v4.87L14,17.6V12.73Zm1,.53L24,18V22.9l-4-2.12Zm5,12.92V24l4-2.21v4.76Zm0-6V18l4-2.26v4.88Zm5-7.66,4-2.26v4.93l-4,2.22Zm4.46-3.67L30.83,9.47l4.07-2.3,3.59,2.07ZM29.81,8.9,25.13,6.25l4.13-2.33,4.64,2.67Zm-1,.57-4,2.28L20.07,9.1l4-2.28Zm-9.74-.94-4-2.26L19.18,4l3.91,2.21ZM18,9.1,13.8,11.5,9.56,9.25,14,6.83Zm-5,3.1v4.87L9,14.95V10.08ZM9,16.08l4,2.12v4.87L9,20.95Zm5,2.65,5,2.65v4.87L14,23.6Zm6,3.18L24,24V28.9l-4-2.12ZM24,30v4.53L20,32.4V27.91Zm1,0v0l4-2.29v4.54l-4,2.31Zm5-2.88,4-2.3v4.53l-4,2.31ZM30,26V21.22L34,19v4.66Zm5-7.51,4-2.22v4.56l-4,2.3ZM28.25,3.34,24.11,5.68,20.22,3.48l4.27-2.31ZM9,22.08l4,2.12v4.41L9,26.45Zm5,7.07V24.73l5,2.65v4.47Zm21-.39V24.24l4-2.3v4.51Z"/></svg>