<?xml version="1.0" encoding="utf-8"?>
<!-- Generator: Adobe Illustrator 20.0.0, SVG Export Plug-In . SVG Version: 6.00 Build 0)  -->
<svg version="1.1" id="Layer_1" xmlns="http://www.w3.org/2000/svg" xmlns:xlink="http://www.w3.org/1999/xlink" x="0px" y="0px"
	 viewBox="0 0 48 36" style="enable-background:new 0 0 48 36;" xml:space="preserve">
<style type="text/css">
	.st0{fill:#333333;}
</style>
<g>
	<path class="st0" d="M11.2,8.3C11.1,8.2,11,8,10.8,8c0,0,0,0,0,0c-0.1,0-0.3,0.2-0.4,0.3c-3,3-4.6,7.1-4.6,11.4
		c0,4.3,1.6,8.3,4.6,11.3c1.5,1.5,3.2,2.7,5.1,3.6c1.9,0.9,4,1.4,6,1.4c2,0,4.1-0.5,6-1.4c1.8-0.9,3.5-2.1,5.1-3.6
		c0.2-0.2,0.2-0.5,0-0.7L11.2,8.3z M27.2,33.7c-3.6,1.7-7.6,1.7-11.2,0c-1.7-0.8-3.4-2-4.8-3.4c-2.8-2.8-4.3-6.5-4.3-10.6
		c0-3.9,1.4-7.5,3.9-10.2l20.8,21.2C30.2,31.9,28.8,33,27.2,33.7z"/>
	<path class="st0" d="M26,18.5c0.7,0,1.3-0.3,1.8-0.8c1-1,1-2.7,0-3.7c-1-1-2.7-1-3.7,0c-1,1-1,2.7,0,3.7
		C24.6,18.2,25.3,18.5,26,18.5z M24.8,14.7c0.3-0.3,0.7-0.5,1.1-0.5s0.8,0.2,1.1,0.5c0.6,0.6,0.6,1.7,0,2.3s-1.7,0.6-2.3,0
		S24.2,15.4,24.8,14.7z"/>
	<path class="st0" d="M25.3,5.9v1c5.4,0,9.7,4.3,9.7,9.6h1C36,10.7,31.2,5.9,25.3,5.9z"/>
	<path class="st0" d="M25.4,0v1c8.6,0,15.7,7,15.7,15.6h1C42.1,7.4,34.6,0,25.4,0z"/>
</g>
</svg>
