<?xml version="1.0" encoding="UTF-8" standalone="no"?>
<svg width="36px" height="36px" viewBox="0 0 36 36" version="1.1" xmlns="http://www.w3.org/2000/svg" xmlns:xlink="http://www.w3.org/1999/xlink">
    <!-- Generator: Sketch 41 (35326) - http://www.bohemiancoding.com/sketch -->
    <title>store</title>
    <desc>Created with Sketch.</desc>
    <defs>
        <path d="M4.83870968,16 C6.95877049,16 8.67741935,14.4329966 8.67741935,12.5 L8.67741935,9 L1,9 L1,12.5 C1,14.4329966 2.71864886,16 4.83870968,16 Z M13.6129032,16 C15.732964,16 17.4516129,14.4329966 17.4516129,12.5 L17.4516129,9 L9.77419355,9 L9.77419355,12.5 C9.77419355,14.4329966 11.4928424,16 13.6129032,16 Z M22.3870968,16 C24.5071576,16 26.2258065,14.4329966 26.2258065,12.5 L26.2258065,9 L18.5483871,9 L18.5483871,12.5 C18.5483871,14.4329966 20.267036,16 22.3870968,16 Z M31.1612903,16 C33.2813511,16 35,14.4329966 35,12.5 L35,9 L27.3225806,9 L27.3225806,12.5 C27.3225806,14.4329966 29.0412295,16 31.1612903,16 Z" id="path-1"></path>
        <mask id="mask-2" maskContentUnits="userSpaceOnUse" maskUnits="objectBoundingBox" x="-1" y="-1" width="36" height="9">
            <rect x="-4.4408921e-16" y="8" width="36" height="9" fill="white"></rect>
            <use xlink:href="#path-1" fill="black"></use>
        </mask>
        <polygon id="path-3" points="1 8 1 5 35 5 35 8"></polygon>
        <mask id="mask-4" maskContentUnits="userSpaceOnUse" maskUnits="objectBoundingBox" x="-1" y="-1" width="36" height="5">
            <rect x="0" y="4" width="36" height="5" fill="white"></rect>
            <use xlink:href="#path-3" fill="black"></use>
        </mask>
        <polygon id="path-5" points="1 35 1 32 35 32 35 35"></polygon>
        <mask id="mask-6" maskContentUnits="userSpaceOnUse" maskUnits="objectBoundingBox" x="-1" y="-1" width="36" height="5">
            <rect x="0" y="31" width="36" height="5" fill="white"></rect>
            <use xlink:href="#path-5" fill="black"></use>
        </mask>
        <polygon id="path-7" points="15 31 15 20 21 20 21 31"></polygon>
        <mask id="mask-8" maskContentUnits="userSpaceOnUse" maskUnits="objectBoundingBox" x="-1" y="-1" width="8" height="13">
            <rect x="14" y="19" width="8" height="13" fill="white"></rect>
            <use xlink:href="#path-7" fill="black"></use>
        </mask>
    </defs>
    <g id="Page-1" stroke="none" stroke-width="1" fill="none" fill-rule="evenodd">
        <g id="store">
            <use id="Combined-Shape" stroke="#333333" mask="url(#mask-2)" stroke-width="2" xlink:href="#path-1"></use>
            <use id="Path" stroke="#333333" mask="url(#mask-4)" stroke-width="2" xlink:href="#path-3"></use>
            <use id="Path" stroke="#333333" mask="url(#mask-6)" stroke-width="2" xlink:href="#path-5"></use>
            <use id="Path" stroke="#333333" mask="url(#mask-8)" stroke-width="2" xlink:href="#path-7"></use>
            <rect id="Rectangle" fill="#333333" x="2" y="16" width="1" height="15"></rect>
            <rect id="Rectangle" fill="#333333" x="33" y="16" width="1" height="15"></rect>
        </g>
    </g>
</svg>