<?xml version="1.0" encoding="utf-8"?>
<!-- Generator: Adobe Illustrator 20.0.0, SVG Export Plug-In . SVG Version: 6.00 Build 0)  -->
<svg version="1.1" id="Layer_1" xmlns="http://www.w3.org/2000/svg" xmlns:xlink="http://www.w3.org/1999/xlink" x="0px" y="0px"
	 viewBox="0 0 48 36" style="enable-background:new 0 0 48 36;" xml:space="preserve">
<style type="text/css">
	.st0{fill:#333333;}
</style>
<path class="st0" d="M40.7,21.5c-2.6-2.6-6.6-2.6-9.4-1.6l-3-2.9L37,8l2,0l2.5-5.5l-2-2L34,3l0.5,2.6l-8.8,8.8l-2.4-2.4
	c1.1-2.8,1-6.8-1.6-9.4c-2.1-2.1-5.3-3-8.2-2.2l-0.8,0.2L16,3.9c1.4,1.4,1.4,3.6,0,5c-1.3,1.3-3.6,1.3-5,0L7.7,5.5L7.4,6.3
	c-0.8,2.9,0.1,6.1,2.2,8.2c2,2,5.3,2.8,8.4,2l1.6,1.6l-6.6,4.3l-5.6,6.3c-1.6,1.7-1.5,4.4,0.1,6.1c0.8,0.8,2,1.3,3.1,1.3
	c1.1,0,2.2-0.4,3-1.2l6.2-5.6l4.2-6.7l2.7,2.7c-0.8,3.1,0,6.4,2,8.4c1.6,1.6,3.8,2.5,6,2.5c0.7,0,1.5-0.1,2.2-0.3l0.8-0.2l-3.4-3.4
	c-1.4-1.4-1.4-3.6,0-5c1.3-1.3,3.6-1.3,5,0l3.4,3.4l0.2-0.8C43.6,26.8,42.8,23.6,40.7,21.5z M18.9,28.6l-6.1,5.5l0,0l0,0
	c-0.6,0.6-1.4,0.9-2.3,0.9c-0.9,0-1.8-0.4-2.4-1c-1.3-1.3-1.4-3.4-0.1-4.7l0,0l0,0l5.6-6.2l6.6-4.3l3,3L18.9,28.6z M35.2,6.3
	l0.4-0.4l-0.1-0.5l-0.3-1.8l4.2-1.9l1,1L38.4,7L37,7l-0.4,0l-0.3,0.3l-8.6,8.9L26.5,15L35.2,6.3z M42.1,28.5L40,26.4
	c-1.8-1.8-4.6-1.8-6.4,0c-1.8,1.8-1.8,4.6,0,6.4l2.1,2.1c-2.3,0.3-4.7-0.4-6.4-2.1c-1.8-1.8-2.5-4.8-1.6-7.7l0.1-0.3l-9.5-9.5
	L18,15.5c-2.8,0.8-5.8,0.2-7.7-1.6c-1.7-1.7-2.4-4.1-2.1-6.4l2.1,2.1c0.9,0.9,2,1.3,3.2,1.3s2.3-0.5,3.2-1.3c1.8-1.8,1.8-4.6,0-6.4
	l-2.1-2.1c2.3-0.3,4.7,0.4,6.4,2.1c2.4,2.4,2.3,6.1,1.3,8.6l-0.1,0.3l4.4,4.5L31,21l0.3-0.1c2.5-1.1,6.2-1.1,8.6,1.3
	C41.6,23.8,42.4,26.2,42.1,28.5z"/>
</svg>
