<svg id="Layer_1" data-name="Layer 1" xmlns="http://www.w3.org/2000/svg" viewBox="0 0 48 36"><defs><style>.cls-1{fill:#333;}</style></defs><title>sym_web_ga</title><polygon class="cls-1" points="23.707 10.129 23 10.836 25.164 13 20 13 20 14 25.164 14 23 16.164 23.707 16.871 26.371 14.207 27.078 13.5 26.371 12.793 23.707 10.129"/><polygon class="cls-1" points="24.078 19.836 23.371 19.129 20.707 21.793 20 22.5 20.707 23.207 23.371 25.871 24.078 25.164 21.914 23 27.078 23 27.078 22 21.914 22 24.078 19.836"/><path class="cls-1" d="M11.694,15.878c-.323-.053-.656-.1-.993-.141a7.423,7.423,0,0,1-3.874-1.231c-1.394-1.164-1.329-3.7-.4-5.248C7.341,7.738,9,7,11.5,7a7,7,0,0,1,2.362.4,6.171,6.171,0,0,1,1.912,1.087l.645-.764A7.154,7.154,0,0,0,14.2,6.461a7.923,7.923,0,0,0-2.2-.44V4H11V6.02c-2.6.1-4.387.988-5.429,2.722-1.163,1.935-1.193,5.021.614,6.531a8.267,8.267,0,0,0,4.386,1.455c.327.043.65.086.964.136,1.41.228,5.969,1.338,5.468,6.088-.382,3.615-3.976,4.006-5.5,4.006-4.4,0-5.952-2.167-7.061-4.2l-.878.479A7.958,7.958,0,0,0,11,27.943V30h1V27.926c3.451-.162,5.688-1.943,6-4.869C18.469,18.589,15.051,16.418,11.694,15.878Z"/><path class="cls-1" d="M37.694,15.878c-.323-.053-.656-.1-.993-.141a7.423,7.423,0,0,1-3.874-1.231c-1.394-1.164-1.329-3.7-.4-5.248C33.341,7.738,35,7,37.5,7a7,7,0,0,1,2.362.4,6.171,6.171,0,0,1,1.912,1.087l.645-.764A7.154,7.154,0,0,0,40.2,6.461a7.923,7.923,0,0,0-2.2-.44V4H37V6.02c-2.6.1-4.387.988-5.429,2.722-1.163,1.935-1.193,5.021.614,6.531a8.267,8.267,0,0,0,4.386,1.455c.327.043.65.086.964.136,1.41.228,5.969,1.338,5.468,6.088-.368,3.485-3.605,4.006-5.5,4.006-4.4,0-5.952-2.167-7.061-4.2l-.878.479A7.958,7.958,0,0,0,37,27.943V30h1V27.926c3.452-.162,5.688-1.943,6-4.869C44.469,18.589,41.051,16.418,37.694,15.878Z"/></svg>