<svg id="Layer_1" data-name="Layer 1" xmlns="http://www.w3.org/2000/svg" viewBox="0 0 48 36"><defs><style>.cls-1{fill:#333;}</style></defs><title>sym_web_ga</title><path class="cls-1" d="M42,11H39V8H35.42L30.13.3,19.25,8,17.84,9,15,11H11v1H41V32H7V9H17.83l1.41-1H6V33H42ZM29.88,1.7,34.2,8l.69,1,1.37,2H34.58L33.13,9,32.4,8l-1.2-1.65-.4.29a2.5,2.5,0,0,1-3.49-.56L27,5.68,23.82,8,22.44,9l-2.76,2H16.75l2.82-2L21,8ZM21.39,11l2.76-2,1.38-1,1.3-.94A3.46,3.46,0,0,0,28.47,8l.31.08A3.43,3.43,0,0,0,30.21,8,3.46,3.46,0,0,0,31,7.72l.21.28.73,1,1.45,2Zm16.09,0L36.1,9H38v2Z"/></svg>